# Pixel2Mesh-DINO ONNX output
v -0.259328 0.241335 0.242843
v 0.314762 0.221830 0.271226
v -0.426540 -0.327482 0.350665
v 0.220660 -0.235331 -0.029901
v -0.030168 -0.007813 0.393366
v 0.066003 0.678562 0.653180
v 0.134904 -0.448165 -0.512607
v -0.007281 -0.105765 -0.177496
v 0.602346 0.174820 -0.335285
v 0.603724 0.101904 0.464644
v -0.639940 0.137646 -0.371130
v -0.582918 0.202638 0.441136
v -0.514702 0.369647 0.326470
v -0.497618 0.505599 0.583595
v -0.213198 0.514112 0.385209
v 0.304067 0.509413 0.385364
v 0.039148 0.248364 0.277161
v 0.174777 -0.022568 0.109873
v -0.172115 -0.041604 0.088953
v -0.313294 -0.074725 -0.286738
v -0.424829 0.139549 0.033407
v -0.654336 0.138492 0.110554
v 0.546004 0.417982 0.578683
v 0.558937 0.325853 0.342400
v -0.335750 0.082464 0.465640
v -0.008122 0.286800 0.552341
v -0.457742 -0.280362 -0.174864
v -0.469430 -0.111701 0.321223
v 0.041503 -0.120469 -0.534305
v -0.511170 -0.218101 -0.648210
v 0.432313 0.116480 0.073265
v 0.323899 -0.034612 -0.262737
v 0.428172 -0.155332 0.250343
v 0.295617 0.016908 0.444890
v 0.084060 -0.156868 0.249040
v -0.214487 -0.160143 0.307589
v 0.005081 -0.344160 0.274611
v -0.390341 -0.758458 0.538450
v 0.635658 -0.515450 -0.142467
v 0.530182 -0.099423 -0.600603
v 0.578009 -0.118006 -0.270401
v 0.654866 0.113810 0.104731
v -0.379676 0.317291 0.272547
v -0.405615 0.463181 0.358400
v -0.233351 0.382274 0.315157
v -0.564968 0.356978 0.519538
v -0.569876 0.472826 0.452075
v -0.608303 0.336206 0.398366
v -0.146134 0.648844 0.511127
v -0.415693 0.600217 0.501027
v -0.306270 0.625182 0.633222
v -0.059580 0.394151 0.321888
v -0.114463 0.249181 0.265811
v 0.259973 0.633495 0.512188
v 0.048406 0.535439 0.401094
v 0.186932 0.236406 0.278111
v 0.147382 0.389979 0.324886
v 0.310330 0.364516 0.324722
v -0.064538 0.091809 0.205815
v -0.213250 0.086624 0.176440
v 0.250821 0.088344 0.207521
v 0.113881 0.091771 0.218332
v -0.108063 -0.087369 -0.039189
v -0.003521 -0.037773 0.099625
v 0.085084 -0.074443 -0.034614
v -0.310206 0.017739 0.066092
v -0.351349 0.158970 0.169461
v -0.164842 -0.109056 -0.229756
v -0.250332 -0.091575 -0.082478
v -0.531205 0.186709 -0.174826
v -0.381254 0.017710 -0.141007
v -0.446847 0.050909 -0.371735
v -0.471884 0.251927 0.205642
v -0.678143 0.163218 -0.146323
v -0.583920 0.222997 0.032398
v -0.602298 0.264866 0.255093
v -0.620760 0.148131 0.315399
v 0.476824 0.437098 0.369908
v 0.429815 0.294742 0.291313
v 0.378935 0.566395 0.623996
v 0.521573 0.551715 0.504235
v 0.643292 0.259434 0.424650
v 0.625044 0.403917 0.467224
v 0.587731 0.256026 0.527897
v -0.247255 0.398807 0.599015
v 0.009110 0.477581 0.626708
v -0.483643 0.132661 0.477728
v -0.418871 0.270097 0.540925
v -0.023086 0.123886 0.472734
v -0.198831 0.187570 0.514663
v -0.180079 0.043027 0.430620
v -0.577380 -0.020521 0.240665
v -0.533305 0.023189 0.381708
v -0.655247 -0.035254 -0.329115
v -0.606809 -0.047805 -0.046443
v -0.425862 -0.215383 0.289413
v -0.486952 -0.195686 0.146554
v -0.494453 -0.362049 0.192260
v -0.382044 -0.073849 -0.509908
v -0.600185 -0.022868 -0.543560
v 0.010424 -0.112070 -0.350807
v -0.172562 -0.105666 -0.419596
v -0.222734 -0.382355 -0.570501
v -0.202227 -0.164193 -0.622064
v 0.066744 -0.216732 -0.644673
v 0.248534 -0.053835 -0.064145
v 0.171198 -0.088311 -0.220980
v 0.379711 0.138251 0.204388
v 0.319151 0.033120 0.105381
v 0.454011 0.075454 -0.316987
v 0.388629 0.032988 -0.094973
v 0.518413 0.174214 -0.131479
v 0.328523 -0.187065 0.099403
v 0.255617 -0.171301 0.252486
v 0.136254 -0.201834 0.131982
v 0.474276 0.045512 0.475562
v 0.375852 -0.098154 0.378354
v 0.527933 -0.061326 0.378573
v 0.042247 -0.100598 0.328399
v 0.198690 -0.105995 0.350349
v 0.124931 0.007643 0.414014
v -0.013682 -0.226345 0.175453
v 0.104895 -0.323318 0.068399
v -0.126050 -0.087746 0.342462
v -0.074530 -0.155741 0.268339
v -0.228293 -0.326227 0.369522
v -0.178358 -0.242527 0.257060
v -0.312080 -0.227266 0.308534
v 0.469565 -0.399130 0.379115
v 0.316315 -0.370438 -0.133987
v -0.563368 -0.475026 0.559673
v 0.178681 -0.398478 0.627587
v 0.495635 -0.681399 -0.448866
v 0.564997 -0.739584 0.493186
v 0.021923 -0.600012 -0.144400
v 0.506336 -0.290085 -0.348626
v 0.393160 -0.209366 -0.159433
v 0.392049 -0.298817 -0.629528
v 0.600065 -0.368200 -0.571529
v 0.673759 0.058365 -0.349303
v 0.639268 -0.080905 -0.495091
v 0.571562 0.052219 -0.486952
v 0.501036 -0.155111 0.017089
v 0.667208 0.191983 -0.148016
v 0.654837 0.007049 -0.088499
v 0.572852 -0.064857 0.209303
v 0.627116 0.070984 0.325407
v 0.168488 0.159682 0.495476
v 0.413684 0.210171 0.522643
v 0.256265 0.361333 0.581057
v -0.350459 -0.147685 0.333913
v -0.268219 -0.057381 0.385208
v -0.419649 -0.023428 0.406151
v -0.496437 -0.661722 -0.469270
v -0.656151 -0.625644 -0.085941
v -0.633008 -0.333673 -0.489113
v 0.408309 -0.023796 -0.458269
v 0.282245 -0.132471 -0.594729
v 0.212697 -0.081722 -0.413173
v 0.617762 0.212001 0.260656
v 0.580748 0.197063 0.048007
v 0.486167 0.217711 0.218474
v -0.313136 0.275524 0.258184
v -0.307933 0.349885 0.291246
v -0.242521 0.307896 0.278590
v -0.461345 0.417723 0.339540
v -0.384935 0.389391 0.310604
v -0.442910 0.345003 0.292785
v -0.221626 0.448994 0.347177
v -0.311440 0.422150 0.330046
v -0.316409 0.488185 0.370156
v -0.570438 0.278015 0.480308
v -0.594759 0.352476 0.459634
v -0.600931 0.273419 0.423789
v -0.555063 0.501741 0.522472
v -0.584623 0.426677 0.491532
v -0.536131 0.432231 0.550420
v -0.568341 0.363331 0.359664
v -0.589971 0.404502 0.422936
v -0.541331 0.423575 0.382680
v -0.056653 0.693979 0.589078
v -0.252265 0.673902 0.582108
v -0.139279 0.655901 0.643487
v -0.307400 0.556312 0.434021
v -0.295521 0.625246 0.504477
v -0.184237 0.572537 0.438277
v -0.415315 0.566877 0.607762
v -0.392287 0.636749 0.573747
v -0.484586 0.577126 0.552988
v -0.490261 0.479186 0.399716
v -0.502936 0.539110 0.477213
v -0.411173 0.531879 0.424277
v -0.167908 0.314797 0.289629
v -0.187828 0.243470 0.254286
v -0.126770 0.456308 0.348769
v -0.146330 0.386518 0.318117
v -0.037407 0.248890 0.271713
v -0.085228 0.319347 0.294186
v -0.007257 0.322419 0.301266
v 0.179662 0.673816 0.589328
v 0.055106 0.641117 0.512210
v 0.178965 0.524001 0.393116
v 0.135879 0.580529 0.442955
v 0.290836 0.570620 0.437091
v -0.032059 0.582238 0.442218
v -0.082904 0.521962 0.392536
v 0.250533 0.228153 0.274648
v 0.247122 0.300577 0.301012
v 0.310401 0.289070 0.299078
v 0.090585 0.316296 0.301373
v 0.167374 0.312086 0.302018
v 0.112836 0.241027 0.276744
v 0.305932 0.440436 0.353307
v 0.230522 0.377227 0.323916
v 0.219851 0.451499 0.352115
v -0.010587 0.465588 0.359383
v 0.105051 0.466581 0.360834
v 0.040033 0.390503 0.324323
v -0.163714 0.162040 0.222345
v -0.233392 0.167220 0.208954
v -0.012007 0.166723 0.242016
v -0.086856 0.168158 0.236535
v -0.192071 0.015235 0.137231
v -0.140430 0.086654 0.192913
v -0.120012 0.019638 0.153874
v 0.282217 0.154017 0.239009
v 0.217064 0.155644 0.243894
v 0.141400 0.027461 0.170705
v 0.183037 0.084952 0.213152
v 0.212309 0.026507 0.163136
v 0.150288 0.159986 0.248229
v 0.076635 0.165677 0.247934
v -0.058844 -0.092928 -0.108529
v -0.015155 -0.083385 -0.034002
v 0.039028 -0.088461 -0.106837
v -0.089050 -0.041360 0.095776
v -0.058216 -0.069591 0.034702
v -0.144538 -0.073424 0.031881
v 0.129060 -0.051765 0.041327
v 0.036447 -0.060434 0.037073
v 0.084198 -0.030379 0.104709
v 0.023662 0.090966 0.212229
v 0.053840 0.021951 0.164324
v -0.036245 0.019016 0.159498
v -0.283342 0.119680 0.175589
v -0.303914 0.194317 0.207195
v -0.245016 -0.025028 0.087072
v -0.263095 0.038395 0.130725
v -0.382698 0.133756 0.111423
v -0.327159 0.086021 0.120945
v -0.361118 0.075277 0.049039
v -0.088991 -0.109402 -0.198027
v -0.137406 -0.105282 -0.124087
v -0.278778 -0.085277 -0.182306
v -0.211187 -0.104185 -0.149356
v -0.242438 -0.099538 -0.248674
v -0.181295 -0.099251 -0.050959
v -0.213721 -0.079591 0.014735
v -0.589530 0.181706 -0.281781
v -0.485980 0.122130 -0.275209
v -0.547020 0.117620 -0.386945
v -0.398765 0.077630 -0.055040
v -0.443956 0.107528 -0.165686
v -0.467514 0.161620 -0.068026
v -0.368147 -0.020566 -0.324426
v -0.406469 0.036740 -0.253944
v -0.346404 -0.034594 -0.208200
v -0.282177 -0.047172 -0.000297
v -0.314376 -0.050583 -0.103388
v -0.340515 0.003906 -0.029464
v -0.359161 0.234904 0.223121
v -0.444574 0.193008 0.125007
v -0.406830 0.207263 0.184271
v -0.422765 0.275740 0.241869
v -0.485764 0.304112 0.264827
v -0.663173 0.159187 -0.263632
v -0.620069 0.205669 -0.177760
v -0.635705 0.203497 0.059657
v -0.637075 0.210264 -0.061359
v -0.666110 0.153481 -0.018449
v -0.557764 0.211537 -0.072227
v -0.499441 0.194936 0.024845
v -0.611879 0.242292 0.358482
v -0.600288 0.171750 0.380141
v -0.552968 0.311445 0.295774
v -0.598530 0.294163 0.329434
v -0.629362 0.130955 0.220128
v -0.620202 0.215375 0.284163
v -0.629578 0.202637 0.187082
v -0.517880 0.229361 0.128687
v -0.589103 0.234357 0.149323
v -0.537333 0.269835 0.223108
v 0.374266 0.329740 0.307092
v 0.370165 0.256466 0.282584
v 0.398503 0.476114 0.375945
v 0.387922 0.407032 0.341070
v 0.489649 0.318408 0.307564
v 0.447353 0.368369 0.327033
v 0.518649 0.383941 0.356774
v 0.233799 0.622035 0.639623
v 0.358696 0.627438 0.580605
v 0.564423 0.502323 0.552783
v 0.487297 0.576202 0.571358
v 0.475892 0.491366 0.596973
v 0.410722 0.597124 0.503313
v 0.414745 0.540639 0.434015
v 0.627404 0.180227 0.450628
v 0.623545 0.259728 0.483862
v 0.593524 0.177002 0.498077
v 0.594956 0.368712 0.400025
v 0.632448 0.331251 0.446572
v 0.611605 0.301390 0.376597
v 0.568653 0.337529 0.551116
v 0.620567 0.337603 0.505805
v 0.607796 0.422106 0.528776
v 0.501745 0.501978 0.427435
v 0.584062 0.480563 0.483611
v 0.561510 0.433302 0.411070
v -0.147175 0.550694 0.637259
v 0.040338 0.581903 0.653671
v -0.374683 0.453488 0.597971
v -0.280452 0.510077 0.620738
v -0.001452 0.370439 0.582427
v -0.133451 0.437787 0.608808
v -0.119343 0.335372 0.570099
v -0.533479 0.166661 0.463374
v -0.520770 0.239046 0.500681
v -0.372190 0.171237 0.500895
v -0.453478 0.202112 0.508276
v -0.409013 0.104700 0.470729
v -0.496417 0.314567 0.534786
v -0.455321 0.381626 0.563510
v -0.026332 0.060139 0.431518
v -0.102101 0.086971 0.449014
v -0.104503 0.020243 0.408757
v -0.106384 0.238124 0.531833
v -0.108137 0.155935 0.490781
v -0.015913 0.205236 0.510386
v -0.256801 0.062279 0.445406
v -0.188453 0.115800 0.470794
v -0.268991 0.136743 0.488879
v -0.337606 0.335172 0.568702
v -0.305575 0.222876 0.525565
v -0.216234 0.284038 0.552647
v -0.576870 0.083391 0.353961
v -0.557396 0.110538 0.411492
v -0.616755 0.056416 0.175977
v -0.599903 0.061985 0.279015
v -0.498303 -0.047383 0.350040
v -0.552327 -0.005269 0.319848
v -0.520451 -0.073962 0.290385
v -0.668082 0.071012 -0.360308
v -0.672899 0.075202 -0.241797
v -0.527811 -0.152368 -0.113942
v -0.621973 -0.040545 -0.191438
v -0.555122 -0.153110 -0.250731
v -0.661142 0.069567 -0.105818
v -0.641489 0.052895 0.028638
v -0.423409 -0.270302 0.313461
v -0.450997 -0.281630 0.248193
v -0.477726 -0.346686 0.301439
v -0.485209 -0.157170 0.244597
v -0.457779 -0.209149 0.231512
v -0.442808 -0.161110 0.300992
v -0.448380 -0.332791 -0.010537
v -0.460463 -0.268840 0.151320
v -0.458130 -0.234906 -0.004941
v -0.587470 -0.040379 0.104150
v -0.528476 -0.130759 0.052873
v -0.534160 -0.109592 0.191375
v -0.522535 0.041312 -0.472644
v -0.620342 0.066069 -0.460230
v -0.333018 -0.073357 -0.398625
v -0.412668 -0.014744 -0.438095
v -0.561842 -0.114818 -0.600497
v -0.488728 -0.035053 -0.540992
v -0.448142 -0.109372 -0.597562
v -0.003857 -0.114748 -0.255460
v -0.085232 -0.109522 -0.287588
v -0.065714 -0.110877 -0.477961
v -0.078660 -0.109955 -0.382814
v 0.026629 -0.114439 -0.444305
v -0.172316 -0.111671 -0.318828
v -0.249452 -0.092036 -0.347333
v -0.038960 -0.414913 -0.522405
v -0.071050 -0.288675 -0.620471
v 0.095903 -0.320835 -0.598468
v -0.354468 -0.182572 -0.634697
v -0.225069 -0.243798 -0.636375
v -0.380935 -0.313910 -0.628435
v 0.055267 -0.150240 -0.611627
v -0.072411 -0.188929 -0.635639
v -0.071492 -0.141592 -0.578930
v -0.272459 -0.097462 -0.457873
v -0.178011 -0.125730 -0.529499
v -0.304143 -0.122965 -0.562227
v 0.126644 -0.085345 -0.121836
v 0.077380 -0.100397 -0.194308
v 0.211375 -0.043953 0.028529
v 0.170990 -0.066694 -0.046758
v 0.250948 -0.064766 -0.237962
v 0.210371 -0.073497 -0.139511
v 0.283843 -0.046990 -0.159372
v 0.346990 0.174682 0.242031
v 0.313030 0.111108 0.211368
v 0.373009 0.067948 0.096352
v 0.345607 0.078510 0.161041
v 0.401192 0.108703 0.147887
v 0.282803 0.051896 0.166158
v 0.251104 0.001368 0.112392
v 0.528930 0.139502 -0.340355
v 0.481539 0.125560 -0.225284
v 0.566592 0.190124 -0.247200
v 0.356208 -0.002768 -0.174542
v 0.415993 0.053002 -0.203867
v 0.386102 0.013404 -0.283941
v 0.468796 0.144497 -0.026192
v 0.444996 0.101862 -0.113728
v 0.405810 0.071620 -0.008193
v 0.284491 -0.017429 0.027823
v 0.351746 0.017386 0.016375
v 0.317239 -0.019662 -0.070797
v 0.264969 -0.197678 0.024115
v 0.230986 -0.193389 0.115450
v 0.177004 -0.218230 0.052346
v 0.342191 -0.166958 0.255562
v 0.291378 -0.184673 0.181850
v 0.377253 -0.175172 0.176401
v 0.109928 -0.179305 0.193554
v 0.191785 -0.181246 0.187597
v 0.167204 -0.162463 0.248523
v 0.548300 0.069041 0.476954
v 0.503635 -0.012796 0.436473
v 0.569686 0.015242 0.424852
v 0.337867 -0.044298 0.416549
v 0.418513 -0.030462 0.429704
v 0.379252 0.030513 0.459029
v 0.474795 -0.113237 0.317511
v 0.451810 -0.082349 0.382974
v 0.402756 -0.131673 0.322563
v 0.007901 -0.055805 0.361215
v 0.083357 -0.047941 0.373243
v 0.046454 0.004057 0.400879
v 0.141570 -0.131882 0.301533
v 0.115794 -0.100477 0.334991
v 0.064267 -0.130695 0.291066
v 0.206520 0.012858 0.425310
v 0.163723 -0.052419 0.382570
v 0.246967 -0.048018 0.400468
v 0.316597 -0.138102 0.318977
v 0.286297 -0.102850 0.364403
v 0.227568 -0.140360 0.306587
v 0.103360 -0.245029 0.085713
v 0.153247 -0.273507 0.010503
v 0.025182 -0.179216 0.202444
v 0.053999 -0.209942 0.148087
v 0.054769 -0.344672 0.168016
v 0.038419 -0.274369 0.122781
v -0.038551 -0.284810 0.197507
v -0.079269 -0.047067 0.365961
v -0.045365 -0.090841 0.332381
v -0.143472 -0.158128 0.286793
v -0.098697 -0.124006 0.307544
v -0.170672 -0.124270 0.322786
v -0.017987 -0.126802 0.297012
v 0.000233 -0.150502 0.254245
v -0.344787 -0.331533 0.373425
v -0.287497 -0.278493 0.322884
v -0.366220 -0.275959 0.326562
v -0.113457 -0.288444 0.251779
v -0.208736 -0.288368 0.297601
v -0.084716 -0.327196 0.326307
v -0.261482 -0.193038 0.302573
v -0.244621 -0.235473 0.284798
v -0.197710 -0.197121 0.279161
v -0.047734 -0.186428 0.221958
v -0.130471 -0.191488 0.252916
v -0.095247 -0.234567 0.215039
v 0.208899 -0.355174 -0.027497
v 0.244973 -0.289629 -0.099251
v 0.235545 -0.355573 0.314340
v 0.237124 -0.386103 0.169759
v 0.481350 -0.426827 -0.111612
v 0.381140 -0.408477 0.110521
v 0.587887 -0.456783 0.189867
v -0.468045 -0.398710 0.428579
v -0.333296 -0.379000 0.466858
v -0.076614 -0.614908 0.648045
v -0.233667 -0.421179 0.612363
v -0.545214 -0.673760 0.608680
v -0.058463 -0.332124 0.481116
v 0.113958 -0.330538 0.433124
v 0.273140 -0.538737 -0.445631
v 0.246796 -0.622425 -0.235286
v 0.068892 -0.508993 -0.350127
v 0.663182 -0.601944 0.194635
v 0.524816 -0.706451 0.050510
v 0.636850 -0.653157 -0.329677
v -0.166398 -0.682849 0.210163
v 0.260839 -0.688221 0.194006
v 0.106321 -0.734707 0.530610
v 0.359351 -0.387366 0.504160
v 0.392241 -0.605891 0.586335
v 0.570921 -0.537446 0.463059
v 0.331458 -0.262852 -0.169931
v 0.302351 -0.220227 -0.094965
v 0.537984 -0.411490 -0.298034
v 0.411494 -0.333371 -0.233177
v 0.483260 -0.169040 -0.211167
v 0.426224 -0.242081 -0.266478
v 0.523526 -0.181569 -0.331314
v 0.260800 -0.391531 -0.572270
v 0.437377 -0.492353 -0.558042
v 0.571000 -0.203543 -0.598391
v 0.517113 -0.341621 -0.611835
v 0.472410 -0.192838 -0.625109
v 0.586459 -0.571102 -0.561422
v 0.602294 -0.487442 -0.411848
v 0.649929 0.133703 -0.354981
v 0.636177 0.075448 -0.435034
v 0.583201 0.116516 -0.413833
v 0.605219 -0.094448 -0.382424
v 0.650236 -0.004240 -0.426265
v 0.640665 -0.030332 -0.311222
v 0.551965 -0.018594 -0.544974
v 0.621701 0.001932 -0.506128
v 0.603758 -0.082859 -0.555393
v 0.566768 -0.329084 -0.449284
v 0.615864 -0.197668 -0.537594
v 0.580314 -0.179329 -0.424620
v 0.355600 -0.194462 -0.032798
v 0.533630 -0.136627 -0.132879
v 0.445794 -0.173117 -0.079855
v 0.412566 -0.176217 0.064906
v 0.458134 -0.168929 0.145778
v 0.642592 0.197073 -0.253918
v 0.676246 0.132685 -0.254566
v 0.656305 0.060345 0.009262
v 0.676261 0.105808 -0.125534
v 0.662321 0.155248 -0.024896
v 0.669670 0.040806 -0.227197
v 0.618753 -0.055157 -0.185150
v 0.582184 -0.001703 0.357870
v 0.618677 0.082368 0.400556
v 0.499097 -0.120650 0.240155
v 0.545153 -0.072261 0.303962
v 0.633339 0.082257 0.224474
v 0.598201 -0.002300 0.273002
v 0.623725 0.022269 0.157421
v 0.579901 -0.085163 -0.029030
v 0.609652 -0.035398 0.063924
v 0.536159 -0.116691 0.118158
v 0.051853 0.067814 0.439624
v 0.231212 0.089483 0.466133
v 0.143314 0.083393 0.453925
v 0.067615 0.144089 0.480327
v 0.082836 0.224465 0.518243
v 0.534611 0.144429 0.502235
v 0.481488 0.303654 0.551865
v 0.512002 0.229394 0.529370
v 0.443886 0.128044 0.496794
v 0.345483 0.111867 0.480272
v 0.190328 0.519109 0.629075
v 0.111355 0.323145 0.560243
v 0.140816 0.411521 0.597625
v 0.319117 0.453022 0.604703
v 0.408113 0.387742 0.581983
v 0.283776 0.182332 0.505748
v 0.343074 0.285237 0.548815
v 0.204927 0.256364 0.533914
v -0.370582 -0.223803 0.301185
v -0.282672 -0.153928 0.319277
v -0.327111 -0.185205 0.316516
v -0.387028 -0.179216 0.309508
v -0.408029 -0.132474 0.329628
v -0.150755 -0.023273 0.385958
v -0.299528 0.011051 0.423558
v -0.224429 -0.006780 0.405695
v -0.196044 -0.072374 0.362093
v -0.238249 -0.109618 0.346317
v -0.506641 0.075490 0.430870
v -0.443877 -0.070740 0.365155
v -0.474485 -0.004252 0.397367
v -0.447825 0.050976 0.440665
v -0.379081 0.029364 0.433512
v -0.310172 -0.102857 0.357723
v -0.343753 -0.041946 0.394143
v -0.382920 -0.086818 0.368228
v -0.126284 -0.472382 -0.369585
v -0.454485 -0.667569 0.055407
v -0.259051 -0.570713 -0.233005
v -0.359282 -0.495370 -0.490880
v -0.520245 -0.459569 -0.596100
v -0.560349 -0.437279 0.372214
v -0.511987 -0.442812 -0.194397
v -0.575159 -0.482552 0.072617
v -0.660490 -0.588850 0.378065
v -0.597972 -0.711270 0.283857
v -0.648153 -0.020054 -0.445687
v -0.598986 -0.270413 -0.581769
v -0.631520 -0.137623 -0.525532
v -0.621628 -0.152010 -0.408816
v -0.533717 -0.310060 -0.315390
v -0.591290 -0.676187 -0.299684
v -0.605438 -0.516284 -0.341278
v -0.590693 -0.554572 -0.520349
v 0.504994 0.077959 -0.411979
v 0.466897 -0.045130 -0.545883
v 0.488309 0.021168 -0.480667
v 0.428440 0.025934 -0.385079
v 0.361114 -0.028328 -0.363698
v 0.218837 -0.258095 -0.629549
v 0.157883 -0.125928 -0.565606
v 0.182623 -0.170834 -0.625054
v 0.336723 -0.192719 -0.628600
v 0.406880 -0.116985 -0.598881
v 0.093353 -0.098818 -0.285092
v 0.271186 -0.060351 -0.334025
v 0.191861 -0.085724 -0.314885
v 0.113478 -0.096962 -0.382044
v 0.132496 -0.101054 -0.474561
v 0.352909 -0.079185 -0.526544
v 0.242748 -0.100609 -0.511052
v 0.310501 -0.058150 -0.433124
v 0.633725 0.163009 0.378853
v 0.631723 0.161805 0.190545
v 0.630846 0.150743 0.290131
v 0.627101 0.229649 0.345108
v 0.583223 0.261396 0.305155
v 0.600599 0.208056 -0.160118
v 0.499643 0.166520 0.050392
v 0.547812 0.191511 -0.044968
v 0.624578 0.202489 -0.054445
v 0.630619 0.174701 0.059248
v 0.397627 0.214214 0.248228
v 0.513299 0.271500 0.275778
v 0.452258 0.251083 0.257549
v 0.427599 0.180019 0.207272
v 0.453506 0.159312 0.149136
v 0.595216 0.197100 0.156870
v 0.525692 0.190632 0.141513
v 0.552753 0.229238 0.226861
f 1 163 165
f 43 164 163
f 45 165 164
f 163 164 165
f 13 166 168
f 44 167 166
f 43 168 167
f 166 167 168
f 15 169 171
f 45 170 169
f 44 171 170
f 169 170 171
f 43 167 164
f 44 170 167
f 45 164 170
f 167 170 164
f 12 172 174
f 46 173 172
f 48 174 173
f 172 173 174
f 14 175 177
f 47 176 175
f 46 177 176
f 175 176 177
f 13 178 180
f 48 179 178
f 47 180 179
f 178 179 180
f 46 176 173
f 47 179 176
f 48 173 179
f 176 179 173
f 6 181 183
f 49 182 181
f 51 183 182
f 181 182 183
f 15 184 186
f 50 185 184
f 49 186 185
f 184 185 186
f 14 187 189
f 51 188 187
f 50 189 188
f 187 188 189
f 49 185 182
f 50 188 185
f 51 182 188
f 185 188 182
f 13 180 166
f 47 190 180
f 44 166 190
f 180 190 166
f 14 189 175
f 50 191 189
f 47 175 191
f 189 191 175
f 15 171 184
f 44 192 171
f 50 184 192
f 171 192 184
f 47 191 190
f 50 192 191
f 44 190 192
f 191 192 190
f 1 165 194
f 45 193 165
f 53 194 193
f 165 193 194
f 15 195 169
f 52 196 195
f 45 169 196
f 195 196 169
f 17 197 199
f 53 198 197
f 52 199 198
f 197 198 199
f 45 196 193
f 52 198 196
f 53 193 198
f 196 198 193
f 6 200 181
f 54 201 200
f 49 181 201
f 200 201 181
f 16 202 204
f 55 203 202
f 54 204 203
f 202 203 204
f 15 186 206
f 49 205 186
f 55 206 205
f 186 205 206
f 54 203 201
f 55 205 203
f 49 201 205
f 203 205 201
f 2 207 209
f 56 208 207
f 58 209 208
f 207 208 209
f 17 210 212
f 57 211 210
f 56 212 211
f 210 211 212
f 16 213 215
f 58 214 213
f 57 215 214
f 213 214 215
f 56 211 208
f 57 214 211
f 58 208 214
f 211 214 208
f 15 206 195
f 55 216 206
f 52 195 216
f 206 216 195
f 16 215 202
f 57 217 215
f 55 202 217
f 215 217 202
f 17 199 210
f 52 218 199
f 57 210 218
f 199 218 210
f 55 217 216
f 57 218 217
f 52 216 218
f 217 218 216
f 1 194 220
f 53 219 194
f 60 220 219
f 194 219 220
f 17 221 197
f 59 222 221
f 53 197 222
f 221 222 197
f 19 223 225
f 60 224 223
f 59 225 224
f 223 224 225
f 53 222 219
f 59 224 222
f 60 219 224
f 222 224 219
f 2 226 207
f 61 227 226
f 56 207 227
f 226 227 207
f 18 228 230
f 62 229 228
f 61 230 229
f 228 229 230
f 17 212 232
f 56 231 212
f 62 232 231
f 212 231 232
f 61 229 227
f 62 231 229
f 56 227 231
f 229 231 227
f 8 233 235
f 63 234 233
f 65 235 234
f 233 234 235
f 19 236 238
f 64 237 236
f 63 238 237
f 236 237 238
f 18 239 241
f 65 240 239
f 64 241 240
f 239 240 241
f 63 237 234
f 64 240 237
f 65 234 240
f 237 240 234
f 17 232 221
f 62 242 232
f 59 221 242
f 232 242 221
f 18 241 228
f 64 243 241
f 62 228 243
f 241 243 228
f 19 225 236
f 59 244 225
f 64 236 244
f 225 244 236
f 62 243 242
f 64 244 243
f 59 242 244
f 243 244 242
f 1 220 246
f 60 245 220
f 67 246 245
f 220 245 246
f 19 247 223
f 66 248 247
f 60 223 248
f 247 248 223
f 21 249 251
f 67 250 249
f 66 251 250
f 249 250 251
f 60 248 245
f 66 250 248
f 67 245 250
f 248 250 245
f 8 252 233
f 68 253 252
f 63 233 253
f 252 253 233
f 20 254 256
f 69 255 254
f 68 256 255
f 254 255 256
f 19 238 258
f 63 257 238
f 69 258 257
f 238 257 258
f 68 255 253
f 69 257 255
f 63 253 257
f 255 257 253
f 11 259 261
f 70 260 259
f 72 261 260
f 259 260 261
f 21 262 264
f 71 263 262
f 70 264 263
f 262 263 264
f 20 265 267
f 72 266 265
f 71 267 266
f 265 266 267
f 70 263 260
f 71 266 263
f 72 260 266
f 263 266 260
f 19 258 247
f 69 268 258
f 66 247 268
f 258 268 247
f 20 267 254
f 71 269 267
f 69 254 269
f 267 269 254
f 21 251 262
f 66 270 251
f 71 262 270
f 251 270 262
f 69 269 268
f 71 270 269
f 66 268 270
f 269 270 268
f 1 246 163
f 67 271 246
f 43 163 271
f 246 271 163
f 21 272 249
f 73 273 272
f 67 249 273
f 272 273 249
f 13 168 275
f 43 274 168
f 73 275 274
f 168 274 275
f 67 273 271
f 73 274 273
f 43 271 274
f 273 274 271
f 11 276 259
f 74 277 276
f 70 259 277
f 276 277 259
f 22 278 280
f 75 279 278
f 74 280 279
f 278 279 280
f 21 264 282
f 70 281 264
f 75 282 281
f 264 281 282
f 74 279 277
f 75 281 279
f 70 277 281
f 279 281 277
f 12 174 284
f 48 283 174
f 77 284 283
f 174 283 284
f 13 285 178
f 76 286 285
f 48 178 286
f 285 286 178
f 22 287 289
f 77 288 287
f 76 289 288
f 287 288 289
f 48 286 283
f 76 288 286
f 77 283 288
f 286 288 283
f 21 282 272
f 75 290 282
f 73 272 290
f 282 290 272
f 22 289 278
f 76 291 289
f 75 278 291
f 289 291 278
f 13 275 285
f 73 292 275
f 76 285 292
f 275 292 285
f 75 291 290
f 76 292 291
f 73 290 292
f 291 292 290
f 2 209 294
f 58 293 209
f 79 294 293
f 209 293 294
f 16 295 213
f 78 296 295
f 58 213 296
f 295 296 213
f 24 297 299
f 79 298 297
f 78 299 298
f 297 298 299
f 58 296 293
f 78 298 296
f 79 293 298
f 296 298 293
f 6 300 200
f 80 301 300
f 54 200 301
f 300 301 200
f 23 302 304
f 81 303 302
f 80 304 303
f 302 303 304
f 16 204 306
f 54 305 204
f 81 306 305
f 204 305 306
f 80 303 301
f 81 305 303
f 54 301 305
f 303 305 301
f 10 307 309
f 82 308 307
f 84 309 308
f 307 308 309
f 24 310 312
f 83 311 310
f 82 312 311
f 310 311 312
f 23 313 315
f 84 314 313
f 83 315 314
f 313 314 315
f 82 311 308
f 83 314 311
f 84 308 314
f 311 314 308
f 16 306 295
f 81 316 306
f 78 295 316
f 306 316 295
f 23 315 302
f 83 317 315
f 81 302 317
f 315 317 302
f 24 299 310
f 78 318 299
f 83 310 318
f 299 318 310
f 81 317 316
f 83 318 317
f 78 316 318
f 317 318 316
f 6 183 320
f 51 319 183
f 86 320 319
f 183 319 320
f 14 321 187
f 85 322 321
f 51 187 322
f 321 322 187
f 26 323 325
f 86 324 323
f 85 325 324
f 323 324 325
f 51 322 319
f 85 324 322
f 86 319 324
f 322 324 319
f 12 326 172
f 87 327 326
f 46 172 327
f 326 327 172
f 25 328 330
f 88 329 328
f 87 330 329
f 328 329 330
f 14 177 332
f 46 331 177
f 88 332 331
f 177 331 332
f 87 329 327
f 88 331 329
f 46 327 331
f 329 331 327
f 5 333 335
f 89 334 333
f 91 335 334
f 333 334 335
f 26 336 338
f 90 337 336
f 89 338 337
f 336 337 338
f 25 339 341
f 91 340 339
f 90 341 340
f 339 340 341
f 89 337 334
f 90 340 337
f 91 334 340
f 337 340 334
f 14 332 321
f 88 342 332
f 85 321 342
f 332 342 321
f 25 341 328
f 90 343 341
f 88 328 343
f 341 343 328
f 26 325 336
f 85 344 325
f 90 336 344
f 325 344 336
f 88 343 342
f 90 344 343
f 85 342 344
f 343 344 342
f 12 284 346
f 77 345 284
f 93 346 345
f 284 345 346
f 22 347 287
f 92 348 347
f 77 287 348
f 347 348 287
f 28 349 351
f 93 350 349
f 92 351 350
f 349 350 351
f 77 348 345
f 92 350 348
f 93 345 350
f 348 350 345
f 11 352 276
f 94 353 352
f 74 276 353
f 352 353 276
f 27 354 356
f 95 355 354
f 94 356 355
f 354 355 356
f 22 280 358
f 74 357 280
f 95 358 357
f 280 357 358
f 94 355 353
f 95 357 355
f 74 353 357
f 355 357 353
f 3 359 361
f 96 360 359
f 98 361 360
f 359 360 361
f 28 362 364
f 97 363 362
f 96 364 363
f 362 363 364
f 27 365 367
f 98 366 365
f 97 367 366
f 365 366 367
f 96 363 360
f 97 366 363
f 98 360 366
f 363 366 360
f 22 358 347
f 95 368 358
f 92 347 368
f 358 368 347
f 27 367 354
f 97 369 367
f 95 354 369
f 367 369 354
f 28 351 362
f 92 370 351
f 97 362 370
f 351 370 362
f 95 369 368
f 97 370 369
f 92 368 370
f 369 370 368
f 11 261 372
f 72 371 261
f 100 372 371
f 261 371 372
f 20 373 265
f 99 374 373
f 72 265 374
f 373 374 265
f 30 375 377
f 100 376 375
f 99 377 376
f 375 376 377
f 72 374 371
f 99 376 374
f 100 371 376
f 374 376 371
f 8 378 252
f 101 379 378
f 68 252 379
f 378 379 252
f 29 380 382
f 102 381 380
f 101 382 381
f 380 381 382
f 20 256 384
f 68 383 256
f 102 384 383
f 256 383 384
f 101 381 379
f 102 383 381
f 68 379 383
f 381 383 379
f 7 385 387
f 103 386 385
f 105 387 386
f 385 386 387
f 30 388 390
f 104 389 388
f 103 390 389
f 388 389 390
f 29 391 393
f 105 392 391
f 104 393 392
f 391 392 393
f 103 389 386
f 104 392 389
f 105 386 392
f 389 392 386
f 20 384 373
f 102 394 384
f 99 373 394
f 384 394 373
f 29 393 380
f 104 395 393
f 102 380 395
f 393 395 380
f 30 377 388
f 99 396 377
f 104 388 396
f 377 396 388
f 102 395 394
f 104 396 395
f 99 394 396
f 395 396 394
f 8 235 398
f 65 397 235
f 107 398 397
f 235 397 398
f 18 399 239
f 106 400 399
f 65 239 400
f 399 400 239
f 32 401 403
f 107 402 401
f 106 403 402
f 401 402 403
f 65 400 397
f 106 402 400
f 107 397 402
f 400 402 397
f 2 404 226
f 108 405 404
f 61 226 405
f 404 405 226
f 31 406 408
f 109 407 406
f 108 408 407
f 406 407 408
f 18 230 410
f 61 409 230
f 109 410 409
f 230 409 410
f 108 407 405
f 109 409 407
f 61 405 409
f 407 409 405
f 9 411 413
f 110 412 411
f 112 413 412
f 411 412 413
f 32 414 416
f 111 415 414
f 110 416 415
f 414 415 416
f 31 417 419
f 112 418 417
f 111 419 418
f 417 418 419
f 110 415 412
f 111 418 415
f 112 412 418
f 415 418 412
f 18 410 399
f 109 420 410
f 106 399 420
f 410 420 399
f 31 419 406
f 111 421 419
f 109 406 421
f 419 421 406
f 32 403 414
f 106 422 403
f 111 414 422
f 403 422 414
f 109 421 420
f 111 422 421
f 106 420 422
f 421 422 420
f 4 423 425
f 113 424 423
f 115 425 424
f 423 424 425
f 33 426 428
f 114 427 426
f 113 428 427
f 426 427 428
f 35 429 431
f 115 430 429
f 114 431 430
f 429 430 431
f 113 427 424
f 114 430 427
f 115 424 430
f 427 430 424
f 10 432 434
f 116 433 432
f 118 434 433
f 432 433 434
f 34 435 437
f 117 436 435
f 116 437 436
f 435 436 437
f 33 438 440
f 118 439 438
f 117 440 439
f 438 439 440
f 116 436 433
f 117 439 436
f 118 433 439
f 436 439 433
f 5 441 443
f 119 442 441
f 121 443 442
f 441 442 443
f 35 444 446
f 120 445 444
f 119 446 445
f 444 445 446
f 34 447 449
f 121 448 447
f 120 449 448
f 447 448 449
f 119 445 442
f 120 448 445
f 121 442 448
f 445 448 442
f 33 440 426
f 117 450 440
f 114 426 450
f 440 450 426
f 34 449 435
f 120 451 449
f 117 435 451
f 449 451 435
f 35 431 444
f 114 452 431
f 120 444 452
f 431 452 444
f 117 451 450
f 120 452 451
f 114 450 452
f 451 452 450
f 4 425 454
f 115 453 425
f 123 454 453
f 425 453 454
f 35 455 429
f 122 456 455
f 115 429 456
f 455 456 429
f 37 457 459
f 123 458 457
f 122 459 458
f 457 458 459
f 115 456 453
f 122 458 456
f 123 453 458
f 456 458 453
f 5 460 441
f 124 461 460
f 119 441 461
f 460 461 441
f 36 462 464
f 125 463 462
f 124 464 463
f 462 463 464
f 35 446 466
f 119 465 446
f 125 466 465
f 446 465 466
f 124 463 461
f 125 465 463
f 119 461 465
f 463 465 461
f 3 467 469
f 126 468 467
f 128 469 468
f 467 468 469
f 37 470 472
f 127 471 470
f 126 472 471
f 470 471 472
f 36 473 475
f 128 474 473
f 127 475 474
f 473 474 475
f 126 471 468
f 127 474 471
f 128 468 474
f 471 474 468
f 35 466 455
f 125 476 466
f 122 455 476
f 466 476 455
f 36 475 462
f 127 477 475
f 125 462 477
f 475 477 462
f 37 459 470
f 122 478 459
f 127 470 478
f 459 478 470
f 125 477 476
f 127 478 477
f 122 476 478
f 477 478 476
f 4 454 480
f 123 479 454
f 130 480 479
f 454 479 480
f 37 481 457
f 129 482 481
f 123 457 482
f 481 482 457
f 39 483 485
f 130 484 483
f 129 485 484
f 483 484 485
f 123 482 479
f 129 484 482
f 130 479 484
f 482 484 479
f 3 486 467
f 131 487 486
f 126 467 487
f 486 487 467
f 38 488 490
f 132 489 488
f 131 490 489
f 488 489 490
f 37 472 492
f 126 491 472
f 132 492 491
f 472 491 492
f 131 489 487
f 132 491 489
f 126 487 491
f 489 491 487
f 7 493 495
f 133 494 493
f 135 495 494
f 493 494 495
f 39 496 498
f 134 497 496
f 133 498 497
f 496 497 498
f 38 499 501
f 135 500 499
f 134 501 500
f 499 500 501
f 133 497 494
f 134 500 497
f 135 494 500
f 497 500 494
f 37 492 481
f 132 502 492
f 129 481 502
f 492 502 481
f 38 501 488
f 134 503 501
f 132 488 503
f 501 503 488
f 39 485 496
f 129 504 485
f 134 496 504
f 485 504 496
f 132 503 502
f 134 504 503
f 129 502 504
f 503 504 502
f 4 480 506
f 130 505 480
f 137 506 505
f 480 505 506
f 39 507 483
f 136 508 507
f 130 483 508
f 507 508 483
f 41 509 511
f 137 510 509
f 136 511 510
f 509 510 511
f 130 508 505
f 136 510 508
f 137 505 510
f 508 510 505
f 7 512 493
f 138 513 512
f 133 493 513
f 512 513 493
f 40 514 516
f 139 515 514
f 138 516 515
f 514 515 516
f 39 498 518
f 133 517 498
f 139 518 517
f 498 517 518
f 138 515 513
f 139 517 515
f 133 513 517
f 515 517 513
f 9 519 521
f 140 520 519
f 142 521 520
f 519 520 521
f 41 522 524
f 141 523 522
f 140 524 523
f 522 523 524
f 40 525 527
f 142 526 525
f 141 527 526
f 525 526 527
f 140 523 520
f 141 526 523
f 142 520 526
f 523 526 520
f 39 518 507
f 139 528 518
f 136 507 528
f 518 528 507
f 40 527 514
f 141 529 527
f 139 514 529
f 527 529 514
f 41 511 522
f 136 530 511
f 141 522 530
f 511 530 522
f 139 529 528
f 141 530 529
f 136 528 530
f 529 530 528
f 4 506 423
f 137 531 506
f 113 423 531
f 506 531 423
f 41 532 509
f 143 533 532
f 137 509 533
f 532 533 509
f 33 428 535
f 113 534 428
f 143 535 534
f 428 534 535
f 137 533 531
f 143 534 533
f 113 531 534
f 533 534 531
f 9 536 519
f 144 537 536
f 140 519 537
f 536 537 519
f 42 538 540
f 145 539 538
f 144 540 539
f 538 539 540
f 41 524 542
f 140 541 524
f 145 542 541
f 524 541 542
f 144 539 537
f 145 541 539
f 140 537 541
f 539 541 537
f 10 434 544
f 118 543 434
f 147 544 543
f 434 543 544
f 33 545 438
f 146 546 545
f 118 438 546
f 545 546 438
f 42 547 549
f 147 548 547
f 146 549 548
f 547 548 549
f 118 546 543
f 146 548 546
f 147 543 548
f 546 548 543
f 41 542 532
f 145 550 542
f 143 532 550
f 542 550 532
f 42 549 538
f 146 551 549
f 145 538 551
f 549 551 538
f 33 535 545
f 143 552 535
f 146 545 552
f 535 552 545
f 145 551 550
f 146 552 551
f 143 550 552
f 551 552 550
f 5 443 333
f 121 553 443
f 89 333 553
f 443 553 333
f 34 554 447
f 148 555 554
f 121 447 555
f 554 555 447
f 26 338 557
f 89 556 338
f 148 557 556
f 338 556 557
f 121 555 553
f 148 556 555
f 89 553 556
f 555 556 553
f 10 309 432
f 84 558 309
f 116 432 558
f 309 558 432
f 23 559 313
f 149 560 559
f 84 313 560
f 559 560 313
f 34 437 562
f 116 561 437
f 149 562 561
f 437 561 562
f 84 560 558
f 149 561 560
f 116 558 561
f 560 561 558
f 6 320 300
f 86 563 320
f 80 300 563
f 320 563 300
f 26 564 323
f 150 565 564
f 86 323 565
f 564 565 323
f 23 304 567
f 80 566 304
f 150 567 566
f 304 566 567
f 86 565 563
f 150 566 565
f 80 563 566
f 565 566 563
f 34 562 554
f 149 568 562
f 148 554 568
f 562 568 554
f 23 567 559
f 150 569 567
f 149 559 569
f 567 569 559
f 26 557 564
f 148 570 557
f 150 564 570
f 557 570 564
f 149 569 568
f 150 570 569
f 148 568 570
f 569 570 568
f 3 469 359
f 128 571 469
f 96 359 571
f 469 571 359
f 36 572 473
f 151 573 572
f 128 473 573
f 572 573 473
f 28 364 575
f 96 574 364
f 151 575 574
f 364 574 575
f 128 573 571
f 151 574 573
f 96 571 574
f 573 574 571
f 5 335 460
f 91 576 335
f 124 460 576
f 335 576 460
f 25 577 339
f 152 578 577
f 91 339 578
f 577 578 339
f 36 464 580
f 124 579 464
f 152 580 579
f 464 579 580
f 91 578 576
f 152 579 578
f 124 576 579
f 578 579 576
f 12 346 326
f 93 581 346
f 87 326 581
f 346 581 326
f 28 582 349
f 153 583 582
f 93 349 583
f 582 583 349
f 25 330 585
f 87 584 330
f 153 585 584
f 330 584 585
f 93 583 581
f 153 584 583
f 87 581 584
f 583 584 581
f 36 580 572
f 152 586 580
f 151 572 586
f 580 586 572
f 25 585 577
f 153 587 585
f 152 577 587
f 585 587 577
f 28 575 582
f 151 588 575
f 153 582 588
f 575 588 582
f 152 587 586
f 153 588 587
f 151 586 588
f 587 588 586
f 7 495 385
f 135 589 495
f 103 385 589
f 495 589 385
f 38 590 499
f 154 591 590
f 135 499 591
f 590 591 499
f 30 390 593
f 103 592 390
f 154 593 592
f 390 592 593
f 135 591 589
f 154 592 591
f 103 589 592
f 591 592 589
f 3 361 486
f 98 594 361
f 131 486 594
f 361 594 486
f 27 595 365
f 155 596 595
f 98 365 596
f 595 596 365
f 38 490 598
f 131 597 490
f 155 598 597
f 490 597 598
f 98 596 594
f 155 597 596
f 131 594 597
f 596 597 594
f 11 372 352
f 100 599 372
f 94 352 599
f 372 599 352
f 30 600 375
f 156 601 600
f 100 375 601
f 600 601 375
f 27 356 603
f 94 602 356
f 156 603 602
f 356 602 603
f 100 601 599
f 156 602 601
f 94 599 602
f 601 602 599
f 38 598 590
f 155 604 598
f 154 590 604
f 598 604 590
f 27 603 595
f 156 605 603
f 155 595 605
f 603 605 595
f 30 593 600
f 154 606 593
f 156 600 606
f 593 606 600
f 155 605 604
f 156 606 605
f 154 604 606
f 605 606 604
f 9 521 411
f 142 607 521
f 110 411 607
f 521 607 411
f 40 608 525
f 157 609 608
f 142 525 609
f 608 609 525
f 32 416 611
f 110 610 416
f 157 611 610
f 416 610 611
f 142 609 607
f 157 610 609
f 110 607 610
f 609 610 607
f 7 387 512
f 105 612 387
f 138 512 612
f 387 612 512
f 29 613 391
f 158 614 613
f 105 391 614
f 613 614 391
f 40 516 616
f 138 615 516
f 158 616 615
f 516 615 616
f 105 614 612
f 158 615 614
f 138 612 615
f 614 615 612
f 8 398 378
f 107 617 398
f 101 378 617
f 398 617 378
f 32 618 401
f 159 619 618
f 107 401 619
f 618 619 401
f 29 382 621
f 101 620 382
f 159 621 620
f 382 620 621
f 107 619 617
f 159 620 619
f 101 617 620
f 619 620 617
f 40 616 608
f 158 622 616
f 157 608 622
f 616 622 608
f 29 621 613
f 159 623 621
f 158 613 623
f 621 623 613
f 32 611 618
f 157 624 611
f 159 618 624
f 611 624 618
f 158 623 622
f 159 624 623
f 157 622 624
f 623 624 622
f 10 544 307
f 147 625 544
f 82 307 625
f 544 625 307
f 42 626 547
f 160 627 626
f 147 547 627
f 626 627 547
f 24 312 629
f 82 628 312
f 160 629 628
f 312 628 629
f 147 627 625
f 160 628 627
f 82 625 628
f 627 628 625
f 9 413 536
f 112 630 413
f 144 536 630
f 413 630 536
f 31 631 417
f 161 632 631
f 112 417 632
f 631 632 417
f 42 540 634
f 144 633 540
f 161 634 633
f 540 633 634
f 112 632 630
f 161 633 632
f 144 630 633
f 632 633 630
f 2 294 404
f 79 635 294
f 108 404 635
f 294 635 404
f 24 636 297
f 162 637 636
f 79 297 637
f 636 637 297
f 31 408 639
f 108 638 408
f 162 639 638
f 408 638 639
f 79 637 635
f 162 638 637
f 108 635 638
f 637 638 635
f 42 634 626
f 161 640 634
f 160 626 640
f 634 640 626
f 31 639 631
f 162 641 639
f 161 631 641
f 639 641 631
f 24 629 636
f 160 642 629
f 162 636 642
f 629 642 636
f 161 641 640
f 162 642 641
f 160 640 642
f 641 642 640
