# Pixel2Mesh-DINO ONNX output
v -0.274988 0.313824 0.255372
v 0.350991 0.242983 0.309119
v -0.420175 -0.428502 0.325269
v 0.306999 -0.303217 0.020157
v -0.014393 0.026812 0.418745
v 0.045598 0.611357 0.637702
v 0.185688 -0.485276 -0.576568
v 0.002440 -0.135042 -0.187063
v 0.622830 0.097943 -0.320013
v 0.579029 0.081458 0.480763
v -0.603009 0.044413 -0.350798
v -0.565714 0.185070 0.449308
v -0.537571 0.397204 0.350106
v -0.411156 0.466273 0.589198
v -0.203214 0.586127 0.434031
v 0.323160 0.561815 0.440197
v 0.054166 0.307433 0.307642
v 0.205234 -0.027548 0.123321
v -0.170721 -0.021080 0.087267
v -0.334801 -0.048851 -0.341807
v -0.473889 0.192301 -0.000238
v -0.637865 0.104353 0.107697
v 0.465968 0.413595 0.598914
v 0.562437 0.339212 0.371819
v -0.327942 0.111409 0.503732
v 0.013443 0.322842 0.621334
v -0.571760 -0.310629 -0.132569
v -0.478896 -0.124435 0.314891
v 0.053980 -0.160078 -0.546956
v -0.435777 -0.290260 -0.580571
v 0.476605 0.144365 0.062847
v 0.375694 -0.057927 -0.280932
v 0.451906 -0.187469 0.271432
v 0.327528 0.023174 0.495320
v 0.112458 -0.168954 0.260899
v -0.202197 -0.158703 0.313969
v 0.021529 -0.421238 0.278065
v -0.285879 -0.773362 0.283585
v 0.498621 -0.589725 -0.212884
v 0.514116 -0.188478 -0.571111
v 0.593324 -0.166598 -0.248798
v 0.651567 0.090835 0.112461
v -0.422212 0.388294 0.296098
v -0.408245 0.515365 0.399244
v -0.250029 0.465432 0.349429
v -0.522743 0.338489 0.526946
v -0.528450 0.450572 0.478241
v -0.588003 0.320411 0.406261
v -0.095009 0.641886 0.549497
v -0.340221 0.571973 0.539187
v -0.206299 0.558357 0.635392
v -0.063408 0.486062 0.350960
v -0.114740 0.317778 0.285658
v 0.211746 0.633251 0.549761
v 0.065254 0.598758 0.457889
v 0.211283 0.283797 0.316999
v 0.180119 0.469284 0.358362
v 0.344816 0.415262 0.366794
v -0.061107 0.121168 0.228047
v -0.218545 0.142060 0.173375
v 0.283151 0.099956 0.231647
v 0.138187 0.109099 0.250211
v -0.109933 -0.103480 -0.043078
v 0.014748 -0.031257 0.104175
v 0.110296 -0.097053 -0.030969
v -0.329253 0.066724 0.043212
v -0.381576 0.225586 0.155291
v -0.175960 -0.124172 -0.251093
v -0.262676 -0.069563 -0.111855
v -0.568693 0.151588 -0.195080
v -0.418993 0.061351 -0.191399
v -0.484080 0.037592 -0.407695
v -0.514120 0.308371 0.191943
v -0.644603 0.086956 -0.134652
v -0.603149 0.203040 0.013705
v -0.609852 0.251190 0.258220
v -0.614399 0.135830 0.307389
v 0.486164 0.464445 0.416577
v 0.467104 0.314706 0.328284
v 0.284555 0.539672 0.635061
v 0.433674 0.541384 0.546376
v 0.606071 0.247424 0.436829
v 0.577899 0.390408 0.500080
v 0.550412 0.247031 0.551002
v -0.205609 0.421941 0.639332
v 0.029488 0.484726 0.673375
v -0.477209 0.141745 0.502024
v -0.400817 0.297390 0.569661
v -0.003042 0.156884 0.523970
v -0.185855 0.223458 0.566857
v -0.172063 0.082123 0.461953
v -0.584351 -0.035403 0.231190
v -0.534153 0.017747 0.388405
v -0.614813 -0.110982 -0.298775
v -0.619971 -0.071303 -0.049335
v -0.443308 -0.265338 0.274542
v -0.534870 -0.229233 0.130571
v -0.527312 -0.428193 0.170651
v -0.399138 -0.103498 -0.528329
v -0.540852 -0.118412 -0.500588
v 0.029371 -0.142444 -0.367939
v -0.169509 -0.111754 -0.465207
v -0.173476 -0.422649 -0.589202
v -0.186480 -0.221837 -0.607137
v 0.090790 -0.273278 -0.635457
v 0.281279 -0.073506 -0.065714
v 0.204914 -0.119862 -0.225917
v 0.420235 0.151844 0.214322
v 0.366208 0.024425 0.115712
v 0.502098 0.056913 -0.345237
v 0.441853 0.029320 -0.113062
v 0.561669 0.154308 -0.144724
v 0.371908 -0.231524 0.124001
v 0.282110 -0.199038 0.270808
v 0.187620 -0.250713 0.163145
v 0.484899 0.030607 0.513177
v 0.397113 -0.121176 0.406481
v 0.531616 -0.089011 0.397745
v 0.062626 -0.078723 0.337444
v 0.221464 -0.104172 0.375585
v 0.155241 0.030009 0.454846
v 0.033435 -0.277063 0.210801
v 0.196267 -0.376324 0.119243
v -0.122109 -0.057241 0.353572
v -0.053296 -0.157986 0.278577
v -0.253547 -0.456197 0.349517
v -0.160455 -0.289443 0.275275
v -0.306885 -0.281731 0.313926
v 0.403008 -0.582803 0.329406
v 0.397877 -0.414382 -0.099987
v -0.430341 -0.637756 0.397052
v 0.031805 -0.633693 0.532124
v 0.417920 -0.629139 -0.443039
v 0.376550 -0.749973 0.271997
v 0.107763 -0.654564 -0.337151
v 0.541869 -0.359199 -0.328503
v 0.463558 -0.271475 -0.122917
v 0.382084 -0.358086 -0.603084
v 0.526333 -0.405115 -0.518857
v 0.653896 -0.016245 -0.319855
v 0.618983 -0.166793 -0.469184
v 0.589880 -0.037474 -0.471108
v 0.527465 -0.184805 0.038837
v 0.659882 0.122221 -0.120862
v 0.646071 -0.021508 -0.075587
v 0.594366 -0.073263 0.216843
v 0.626521 0.065184 0.324129
v 0.198258 0.178695 0.568206
v 0.425593 0.222788 0.576552
v 0.248922 0.392413 0.639871
v -0.349657 -0.150083 0.336824
v -0.262016 -0.034937 0.409668
v -0.420855 -0.010991 0.425454
v -0.412263 -0.599007 -0.416522
v -0.555642 -0.622808 -0.021085
v -0.564561 -0.349555 -0.412213
v 0.457001 -0.070962 -0.474766
v 0.302518 -0.189149 -0.585084
v 0.246392 -0.112476 -0.434804
v 0.614452 0.206786 0.276213
v 0.598996 0.182530 0.045742
v 0.516181 0.254940 0.228102
f 1 43 45
f 13 44 43
f 15 45 44
f 43 44 45
f 12 46 48
f 14 47 46
f 13 48 47
f 46 47 48
f 6 49 51
f 15 50 49
f 14 51 50
f 49 50 51
f 13 47 44
f 14 50 47
f 15 44 50
f 47 50 44
f 1 45 53
f 15 52 45
f 17 53 52
f 45 52 53
f 6 54 49
f 16 55 54
f 15 49 55
f 54 55 49
f 2 56 58
f 17 57 56
f 16 58 57
f 56 57 58
f 15 55 52
f 16 57 55
f 17 52 57
f 55 57 52
f 1 53 60
f 17 59 53
f 19 60 59
f 53 59 60
f 2 61 56
f 18 62 61
f 17 56 62
f 61 62 56
f 8 63 65
f 19 64 63
f 18 65 64
f 63 64 65
f 17 62 59
f 18 64 62
f 19 59 64
f 62 64 59
f 1 60 67
f 19 66 60
f 21 67 66
f 60 66 67
f 8 68 63
f 20 69 68
f 19 63 69
f 68 69 63
f 11 70 72
f 21 71 70
f 20 72 71
f 70 71 72
f 19 69 66
f 20 71 69
f 21 66 71
f 69 71 66
f 1 67 43
f 21 73 67
f 13 43 73
f 67 73 43
f 11 74 70
f 22 75 74
f 21 70 75
f 74 75 70
f 12 48 77
f 13 76 48
f 22 77 76
f 48 76 77
f 21 75 73
f 22 76 75
f 13 73 76
f 75 76 73
f 2 58 79
f 16 78 58
f 24 79 78
f 58 78 79
f 6 80 54
f 23 81 80
f 16 54 81
f 80 81 54
f 10 82 84
f 24 83 82
f 23 84 83
f 82 83 84
f 16 81 78
f 23 83 81
f 24 78 83
f 81 83 78
f 6 51 86
f 14 85 51
f 26 86 85
f 51 85 86
f 12 87 46
f 25 88 87
f 14 46 88
f 87 88 46
f 5 89 91
f 26 90 89
f 25 91 90
f 89 90 91
f 14 88 85
f 25 90 88
f 26 85 90
f 88 90 85
f 12 77 93
f 22 92 77
f 28 93 92
f 77 92 93
f 11 94 74
f 27 95 94
f 22 74 95
f 94 95 74
f 3 96 98
f 28 97 96
f 27 98 97
f 96 97 98
f 22 95 92
f 27 97 95
f 28 92 97
f 95 97 92
f 11 72 100
f 20 99 72
f 30 100 99
f 72 99 100
f 8 101 68
f 29 102 101
f 20 68 102
f 101 102 68
f 7 103 105
f 30 104 103
f 29 105 104
f 103 104 105
f 20 102 99
f 29 104 102
f 30 99 104
f 102 104 99
f 8 65 107
f 18 106 65
f 32 107 106
f 65 106 107
f 2 108 61
f 31 109 108
f 18 61 109
f 108 109 61
f 9 110 112
f 32 111 110
f 31 112 111
f 110 111 112
f 18 109 106
f 31 111 109
f 32 106 111
f 109 111 106
f 4 113 115
f 33 114 113
f 35 115 114
f 113 114 115
f 10 116 118
f 34 117 116
f 33 118 117
f 116 117 118
f 5 119 121
f 35 120 119
f 34 121 120
f 119 120 121
f 33 117 114
f 34 120 117
f 35 114 120
f 117 120 114
f 4 115 123
f 35 122 115
f 37 123 122
f 115 122 123
f 5 124 119
f 36 125 124
f 35 119 125
f 124 125 119
f 3 126 128
f 37 127 126
f 36 128 127
f 126 127 128
f 35 125 122
f 36 127 125
f 37 122 127
f 125 127 122
f 4 123 130
f 37 129 123
f 39 130 129
f 123 129 130
f 3 131 126
f 38 132 131
f 37 126 132
f 131 132 126
f 7 133 135
f 39 134 133
f 38 135 134
f 133 134 135
f 37 132 129
f 38 134 132
f 39 129 134
f 132 134 129
f 4 130 137
f 39 136 130
f 41 137 136
f 130 136 137
f 7 138 133
f 40 139 138
f 39 133 139
f 138 139 133
f 9 140 142
f 41 141 140
f 40 142 141
f 140 141 142
f 39 139 136
f 40 141 139
f 41 136 141
f 139 141 136
f 4 137 113
f 41 143 137
f 33 113 143
f 137 143 113
f 9 144 140
f 42 145 144
f 41 140 145
f 144 145 140
f 10 118 147
f 33 146 118
f 42 147 146
f 118 146 147
f 41 145 143
f 42 146 145
f 33 143 146
f 145 146 143
f 5 121 89
f 34 148 121
f 26 89 148
f 121 148 89
f 10 84 116
f 23 149 84
f 34 116 149
f 84 149 116
f 6 86 80
f 26 150 86
f 23 80 150
f 86 150 80
f 34 149 148
f 23 150 149
f 26 148 150
f 149 150 148
f 3 128 96
f 36 151 128
f 28 96 151
f 128 151 96
f 5 91 124
f 25 152 91
f 36 124 152
f 91 152 124
f 12 93 87
f 28 153 93
f 25 87 153
f 93 153 87
f 36 152 151
f 25 153 152
f 28 151 153
f 152 153 151
f 7 135 103
f 38 154 135
f 30 103 154
f 135 154 103
f 3 98 131
f 27 155 98
f 38 131 155
f 98 155 131
f 11 100 94
f 30 156 100
f 27 94 156
f 100 156 94
f 38 155 154
f 27 156 155
f 30 154 156
f 155 156 154
f 9 142 110
f 40 157 142
f 32 110 157
f 142 157 110
f 7 105 138
f 29 158 105
f 40 138 158
f 105 158 138
f 8 107 101
f 32 159 107
f 29 101 159
f 107 159 101
f 40 158 157
f 29 159 158
f 32 157 159
f 158 159 157
f 10 147 82
f 42 160 147
f 24 82 160
f 147 160 82
f 9 112 144
f 31 161 112
f 42 144 161
f 112 161 144
f 2 79 108
f 24 162 79
f 31 108 162
f 79 162 108
f 42 161 160
f 31 162 161
f 24 160 162
f 161 162 160
