# Pixel2Mesh output
v -0.192629 0.321726 0.248654
v 0.221290 0.316490 0.253402
v -0.336391 -0.226923 0.313145
v 0.179702 -0.041368 0.079731
v -0.017732 0.188444 0.329056
v 0.098640 0.970425 0.645080
v 0.289411 -0.169533 -0.537527
v -0.003693 0.045316 -0.136164
v 0.439929 0.092450 -0.192493
v 0.413163 0.162617 0.391428
v -0.429852 0.082504 -0.211405
v -0.429606 0.239198 0.402876
v -0.392416 0.386002 0.310165
v -0.416682 0.618772 0.496817
v -0.207383 0.630306 0.371472
v 0.270718 0.636815 0.364528
v 0.020963 0.346813 0.255189
v 0.116910 0.089569 0.102564
v -0.105330 0.063996 0.098322
v -0.227400 0.058487 -0.220302
v -0.307692 0.109982 0.104567
v -0.455763 0.071863 0.188898
v 0.413488 0.568823 0.473933
v 0.424919 0.354727 0.325532
v -0.252482 0.229290 0.371408
v 0.005110 0.471067 0.420572
v -0.380771 -0.134599 0.075665
v -0.382238 0.002795 0.345531
v 0.043183 0.080768 -0.440308
v -0.434445 0.010505 -0.576011
v 0.311916 0.107304 0.111998
v 0.227808 0.068586 -0.195536
v 0.308921 -0.018295 0.266774
v 0.201140 0.191380 0.346481
v 0.066291 0.010812 0.243306
v -0.189145 0.006047 0.273355
v -0.067968 -0.169939 0.176337
v -0.524667 -0.898908 0.533487
v 0.338135 -0.465613 -0.233274
v 0.450149 0.028018 -0.485812
v 0.396448 -0.044515 -0.154184
v 0.468905 0.025957 0.187900
v -0.290988 0.370341 0.275725
v -0.333435 0.531782 0.336770
v -0.194833 0.466941 0.303441
v -0.416096 0.404481 0.443616
v -0.443617 0.524979 0.407321
v -0.449056 0.340568 0.371817
v -0.201793 0.955621 0.518317
v -0.433060 0.776528 0.455548
v -0.349609 0.861774 0.592630
v -0.062829 0.487733 0.314128
v -0.089969 0.340707 0.252371
v 0.326403 0.925005 0.505540
v 0.039785 0.668829 0.395773
v 0.131590 0.339230 0.256203
v 0.107722 0.491303 0.314704
v 0.232376 0.464483 0.301710
v -0.042701 0.194673 0.193626
v -0.142352 0.174498 0.185740
v 0.165225 0.191358 0.196837
v 0.078960 0.207189 0.200223
v -0.060905 0.035391 -0.016803
v 0.010027 0.075913 0.095366
v 0.071416 0.043373 -0.019761
v -0.208325 0.076410 0.102272
v -0.246865 0.201159 0.201735
v -0.116025 0.047453 -0.176228
v -0.164585 0.035478 -0.046516
v -0.377331 0.104758 -0.047932
v -0.276477 0.061973 -0.068210
v -0.337351 0.093891 -0.255126
v -0.342287 0.242758 0.230701
v -0.457813 0.065258 -0.013938
v -0.410337 0.125547 0.116777
v -0.430569 0.218468 0.274984
v -0.451644 0.144168 0.328683
v 0.375786 0.512094 0.338544
v 0.322077 0.356160 0.284302
v 0.380599 0.806794 0.568570
v 0.467436 0.718651 0.447243
v 0.459979 0.281491 0.381583
v 0.459140 0.471308 0.408266
v 0.409000 0.348920 0.424475
v -0.199242 0.560625 0.469684
v 0.016021 0.669527 0.515042
v -0.356080 0.223674 0.405998
v -0.308105 0.392260 0.428451
v -0.003147 0.328893 0.369311
v -0.138407 0.366149 0.388601
v -0.132878 0.227727 0.345506
v -0.440172 0.021663 0.301169
v -0.407368 0.095097 0.375800
v -0.442282 -0.021055 -0.186408
v -0.449502 -0.018457 0.104887
v -0.360376 -0.098516 0.318697
v -0.415166 -0.085643 0.278305
v -0.410904 -0.241630 0.314763
v -0.313955 0.092676 -0.413726
v -0.436707 0.055555 -0.388876
v 0.008291 0.058650 -0.275450
v -0.133366 0.074977 -0.343271
v -0.152229 -0.050658 -0.563806
v -0.159395 0.072440 -0.524764
v 0.104579 0.042626 -0.568819
v 0.171924 0.048620 -0.044451
v 0.120407 0.049146 -0.170064
v 0.261212 0.195227 0.207362
v 0.208835 0.106051 0.108489
v 0.337861 0.095666 -0.222941
v 0.271769 0.075498 -0.050228
v 0.379833 0.093075 -0.032372
v 0.239256 -0.011358 0.154902
v 0.190467 0.005400 0.243741
v 0.124376 -0.016339 0.179194
v 0.316002 0.161304 0.372547
v 0.252189 0.048549 0.318600
v 0.367431 0.022556 0.343044
v 0.027171 0.075657 0.286259
v 0.139485 0.072677 0.302272
v 0.093144 0.212781 0.339082
v -0.002626 -0.040509 0.184410
v 0.103163 -0.100069 0.124298
v -0.103596 0.086761 0.297568
v -0.067190 0.007259 0.249447
v -0.241604 -0.237027 0.255796
v -0.160676 -0.072179 0.219821
v -0.261357 -0.088846 0.276643
v 0.297885 -0.258682 0.254473
v 0.191383 -0.153286 -0.048144
v -0.393572 -0.450012 0.378860
v -0.166908 -0.385089 0.304227
v 0.544514 -0.876774 -0.551071
v 0.542036 -0.796224 0.525812
v 0.168581 -0.439232 -0.234275
v 0.298820 -0.152314 -0.268302
v 0.263695 -0.042974 -0.043717
v 0.440966 -0.057445 -0.597954
v 0.479432 -0.267987 -0.494031
v 0.475402 0.023397 -0.202767
v 0.446310 -0.039093 -0.361230
v 0.437248 0.067224 -0.351974
v 0.352893 -0.038497 0.097414
v 0.472070 0.061378 -0.011539
v 0.456401 -0.022490 0.020792
v 0.421292 -0.024915 0.254246
v 0.454999 0.067168 0.329204
v 0.120497 0.356616 0.377838
v 0.290554 0.365807 0.405280
v 0.204180 0.551462 0.459257
v -0.291558 0.002300 0.317348
v -0.218373 0.104125 0.324870
v -0.324686 0.101780 0.367696
v -0.524059 -0.842255 -0.568944
v -0.447875 -0.482497 0.242504
v -0.405295 -0.267307 -0.413059
v 0.325495 0.095963 -0.373062
v 0.260567 0.074827 -0.502754
v 0.161781 0.075012 -0.325675
v 0.453946 0.168611 0.291821
v 0.426566 0.086789 0.130413
v 0.364626 0.213793 0.243405
v -0.239202 0.346568 0.263849
v -0.243621 0.422550 0.285639
v -0.190948 0.396245 0.276463
v -0.360307 0.460313 0.320957
v -0.303306 0.448331 0.301842
v -0.338106 0.377862 0.288490
v -0.194547 0.540016 0.334818
v -0.256492 0.496908 0.316524
v -0.280828 0.585002 0.350564
v -0.418542 0.319988 0.424061
v -0.436711 0.377259 0.410030
v -0.440825 0.290349 0.390111
v -0.448758 0.581004 0.456164
v -0.439458 0.471599 0.432081
v -0.411003 0.505025 0.465971
v -0.425495 0.371924 0.337909
v -0.441089 0.432518 0.389040
v -0.416149 0.457038 0.351877
v -0.050571 1.015872 0.601799
v -0.325430 0.973385 0.579458
v -0.156736 0.930901 0.630935
v -0.320595 0.712509 0.401695
v -0.369075 0.881678 0.487040
v -0.216035 0.754533 0.421709
v -0.402872 0.737798 0.536064
v -0.441390 0.863395 0.543168
v -0.453221 0.718146 0.492430
v -0.397851 0.537592 0.363048
v -0.438866 0.642264 0.425896
v -0.374844 0.642733 0.383598
v -0.138091 0.407423 0.277189
v -0.140125 0.332401 0.250154
v -0.120871 0.553075 0.341877
v -0.130542 0.476021 0.307528
v -0.035065 0.341771 0.252146
v -0.078614 0.414015 0.282017
v -0.018439 0.416971 0.284131
v 0.246796 0.995782 0.592493
v 0.098410 0.946455 0.516004
v 0.163327 0.653959 0.382293
v 0.158313 0.770837 0.432668
v 0.302050 0.747499 0.413352
v -0.038792 0.768551 0.436245
v -0.090438 0.645159 0.384776
v 0.176955 0.328372 0.254167
v 0.181691 0.400995 0.277462
v 0.223676 0.387407 0.278670
v 0.061829 0.416876 0.284687
v 0.121867 0.414920 0.283659
v 0.076703 0.343156 0.254586
v 0.238949 0.548355 0.331696
v 0.173042 0.480153 0.305966
v 0.172594 0.558831 0.338014
v -0.020460 0.572194 0.353400
v 0.076357 0.576322 0.354520
v 0.022492 0.486927 0.314861
v -0.117720 0.257968 0.220417
v -0.164894 0.250171 0.216750
v -0.012418 0.268336 0.223622
v -0.064002 0.263240 0.222061
v -0.123429 0.108768 0.146903
v -0.093366 0.180356 0.190572
v -0.072498 0.124568 0.154347
v 0.192800 0.254424 0.225364
v 0.148504 0.264723 0.228563
v 0.097387 0.144493 0.161880
v 0.121468 0.199638 0.199005
v 0.138797 0.134448 0.155499
v 0.103251 0.270333 0.228705
v 0.052979 0.273182 0.227175
v -0.032399 0.041251 -0.076882
v 0.004744 0.038240 -0.014604
v 0.035268 0.043869 -0.077676
v -0.046984 0.071205 0.098061
v -0.024605 0.049486 0.045856
v -0.083377 0.044573 0.048140
v 0.095720 0.062613 0.046154
v 0.040450 0.054489 0.044106
v 0.065643 0.082828 0.100413
v 0.020421 0.201456 0.196491
v 0.044749 0.140476 0.155285
v -0.014076 0.133635 0.153530
v -0.192989 0.184112 0.196810
v -0.218382 0.261673 0.225979
v -0.156867 0.065170 0.101833
v -0.172841 0.114706 0.151850
v -0.271930 0.145451 0.159388
v -0.223075 0.129468 0.157413
v -0.253749 0.090943 0.103022
v -0.060131 0.045364 -0.153763
v -0.085787 0.039271 -0.094044
v -0.194917 0.047283 -0.132546
v -0.139408 0.043354 -0.112093
v -0.170350 0.050342 -0.195298
v -0.110763 0.032045 -0.026869
v -0.133133 0.037464 0.035647
v -0.406514 0.098907 -0.136291
v -0.353749 0.097363 -0.148907
v -0.385927 0.095821 -0.241775
v -0.289178 0.078945 0.023450
v -0.323041 0.086545 -0.061890
v -0.341204 0.103230 0.033049
v -0.278589 0.076237 -0.240796
v -0.302636 0.077897 -0.159898
v -0.251765 0.060812 -0.144847
v -0.187280 0.048731 0.035072
v -0.221679 0.045772 -0.055811
v -0.238994 0.061127 0.025686
v -0.264958 0.288816 0.243485
v -0.321065 0.171169 0.174295
v -0.290689 0.224024 0.214341
v -0.313347 0.304184 0.254932
v -0.360824 0.311329 0.270055
v -0.446179 0.078074 -0.116639
v -0.424063 0.093001 -0.039229
v -0.438221 0.105865 0.144417
v -0.434975 0.096078 0.053068
v -0.456211 0.067099 0.091747
v -0.393207 0.111369 0.039176
v -0.357134 0.123026 0.107625
v -0.446335 0.240424 0.351814
v -0.441965 0.191753 0.367800
v -0.408589 0.302739 0.294137
v -0.437519 0.277208 0.322283
v -0.450049 0.100533 0.266853
v -0.443205 0.182121 0.300939
v -0.440071 0.140649 0.238265
v -0.372417 0.175795 0.181702
v -0.416036 0.166359 0.202353
v -0.387875 0.238048 0.246466
v 0.279328 0.413985 0.288451
v 0.267769 0.335906 0.267834
v 0.331332 0.576831 0.346566
v 0.300328 0.496321 0.316002
v 0.375686 0.360260 0.299686
v 0.342718 0.436154 0.308852
v 0.398315 0.435215 0.329527
v 0.273277 0.897813 0.613968
v 0.409105 0.913754 0.564706
v 0.456307 0.647520 0.476988
v 0.466580 0.784450 0.522023
v 0.407196 0.675851 0.514040
v 0.434127 0.830201 0.474885
v 0.385997 0.685308 0.392169
v 0.439901 0.220302 0.390660
v 0.442765 0.313778 0.407122
v 0.405502 0.254629 0.410213
v 0.443461 0.413879 0.362572
v 0.454903 0.376242 0.394536
v 0.451746 0.325723 0.351774
v 0.405590 0.456364 0.446961
v 0.443984 0.415769 0.422581
v 0.450556 0.525131 0.446102
v 0.417313 0.606543 0.383583
v 0.455947 0.586245 0.426471
v 0.432165 0.498531 0.367753
v -0.152335 0.758930 0.560580
v 0.057428 0.827665 0.603156
v -0.313838 0.586620 0.485398
v -0.264893 0.681805 0.521766
v 0.006112 0.557861 0.455161
v -0.112114 0.615032 0.486069
v -0.087077 0.514112 0.438093
v -0.393836 0.226890 0.410291
v -0.382604 0.309786 0.423274
v -0.274713 0.308410 0.397070
v -0.332540 0.306036 0.415092
v -0.303318 0.220643 0.386439
v -0.366433 0.392866 0.438530
v -0.351464 0.490526 0.459038
v -0.011359 0.261401 0.350632
v -0.068325 0.284568 0.354083
v -0.073923 0.213085 0.337042
v -0.069709 0.425425 0.401756
v -0.066938 0.352330 0.374926
v 0.001238 0.402946 0.391684
v -0.192011 0.232632 0.350734
v -0.130842 0.300611 0.363584
v -0.196706 0.302466 0.375276
v -0.255157 0.479551 0.443521
v -0.221658 0.376235 0.402921
v -0.159844 0.458764 0.423791
v -0.431821 0.117654 0.359140
v -0.417534 0.165808 0.388383
v -0.446415 0.044135 0.245343
v -0.443209 0.080955 0.316936
v -0.392814 0.048249 0.361475
v -0.423579 0.055376 0.347970
v -0.412781 0.006860 0.333673
v -0.449589 0.045542 -0.211175
v -0.454732 0.024051 -0.101547
v -0.422706 -0.068247 0.092064
v -0.441716 -0.020760 -0.036550
v -0.401530 -0.073575 -0.067815
v -0.458921 0.026419 0.038354
v -0.455022 0.027385 0.143924
v -0.347975 -0.159605 0.316298
v -0.382892 -0.167833 0.318124
v -0.380356 -0.242190 0.327384
v -0.400725 -0.046497 0.318861
v -0.390500 -0.097407 0.311021
v -0.369236 -0.043752 0.329919
v -0.404309 -0.192776 0.229078
v -0.405068 -0.149839 0.288863
v -0.410683 -0.112659 0.201662
v -0.445666 -0.005761 0.211685
v -0.429990 -0.054938 0.198463
v -0.426495 -0.032083 0.287390
v -0.387927 0.089931 -0.333717
v -0.423398 0.068639 -0.296768
v -0.262506 0.074925 -0.315996
v -0.325194 0.094458 -0.336374
v -0.441970 0.038297 -0.486417
v -0.385858 0.088230 -0.414968
v -0.371200 0.075966 -0.504771
v 0.002403 0.050339 -0.202595
v -0.055158 0.055987 -0.227893
v -0.054386 0.076502 -0.391626
v -0.058739 0.065633 -0.308092
v 0.019417 0.066441 -0.356238
v -0.121303 0.058680 -0.256536
v -0.182202 0.065776 -0.279348
v 0.069479 -0.095597 -0.517468
v -0.018140 0.004740 -0.571213
v 0.184565 -0.043740 -0.575593
v -0.295292 0.059274 -0.554929
v -0.168501 0.034698 -0.575104
v -0.316052 -0.031425 -0.595541
v 0.075269 0.074105 -0.518221
v -0.031095 0.057828 -0.548125
v -0.047272 0.075612 -0.481604
v -0.216914 0.080351 -0.375168
v -0.142087 0.078437 -0.438814
v -0.244858 0.083334 -0.470117
v 0.092723 0.043871 -0.093315
v 0.058903 0.046287 -0.151630
v 0.141687 0.061410 0.035218
v 0.120841 0.044130 -0.030222
v 0.176707 0.055893 -0.179106
v 0.146698 0.047754 -0.106234
v 0.198051 0.056826 -0.118317
v 0.241569 0.257520 0.231977
v 0.210562 0.194229 0.203281
v 0.255294 0.108291 0.110137
v 0.228932 0.143113 0.164880
v 0.279817 0.140645 0.167071
v 0.184427 0.140002 0.161360
v 0.163566 0.096546 0.106802
v 0.391174 0.101252 -0.215197
v 0.356044 0.094407 -0.128072
v 0.414483 0.100727 -0.119959
v 0.249866 0.071534 -0.122135
v 0.301725 0.082015 -0.133549
v 0.279437 0.082499 -0.209884
v 0.344096 0.094622 0.043352
v 0.322528 0.085335 -0.044007
v 0.288211 0.086814 0.035489
v 0.190370 0.072493 0.037313
v 0.238360 0.082781 0.036235
v 0.221787 0.062493 -0.047008
v 0.203513 -0.015509 0.112667
v 0.181082 -0.013012 0.166876
v 0.155720 -0.029545 0.130727
v 0.246676 -0.004444 0.253886
v 0.215518 -0.005852 0.204002
v 0.274269 -0.013958 0.210596
v 0.093669 -0.001931 0.211244
v 0.154864 -0.001371 0.208419
v 0.127932 0.012781 0.238916
v 0.366917 0.157696 0.385980
v 0.339043 0.085873 0.359690
v 0.391642 0.085244 0.369128
v 0.226355 0.112405 0.333947
v 0.280193 0.097647 0.346135
v 0.258730 0.172974 0.357119
v 0.340419 -0.005919 0.310804
v 0.307765 0.032772 0.330835
v 0.281526 0.009879 0.299289
v 0.006504 0.131030 0.307393
v 0.060079 0.142528 0.314944
v 0.037300 0.206244 0.331623
v 0.102976 0.040262 0.276160
v 0.080039 0.079334 0.290137
v 0.044654 0.038043 0.267962
v 0.143589 0.205828 0.339486
v 0.115465 0.137788 0.320784
v 0.168164 0.129629 0.326362
v 0.221458 0.023543 0.286071
v 0.194761 0.062464 0.307478
v 0.166685 0.033196 0.277871
v 0.107613 -0.044015 0.142852
v 0.139011 -0.063478 0.098697
v 0.029695 -0.011671 0.210168
v 0.063583 -0.024810 0.180022
v 0.032295 -0.128074 0.150498
v 0.050537 -0.066580 0.152316
v -0.035239 -0.088390 0.171602
v -0.059651 0.138057 0.312854
v -0.037214 0.085060 0.292817
v -0.127510 0.009770 0.259604
v -0.084126 0.043707 0.277184
v -0.145604 0.045219 0.282263
v -0.018581 0.039622 0.271033
v -0.003461 0.011550 0.244488
v -0.288128 -0.231817 0.289225
v -0.249852 -0.151714 0.259489
v -0.295786 -0.154194 0.291828
v -0.124915 -0.118232 0.192478
v -0.198719 -0.144056 0.224501
v -0.163481 -0.210789 0.209206
v -0.226977 -0.035689 0.271815
v -0.211269 -0.080091 0.245551
v -0.175884 -0.031291 0.248247
v -0.039745 -0.018126 0.216076
v -0.115347 -0.025386 0.229942
v -0.084018 -0.054524 0.198792
v 0.163184 -0.129033 0.049719
v 0.181811 -0.084041 0.011920
v 0.092325 -0.209766 0.185571
v 0.159792 -0.179563 0.155194
v 0.240689 -0.282520 -0.147025
v 0.224413 -0.218919 0.099748
v 0.359190 -0.360134 0.197870
v -0.355315 -0.320216 0.335871
v -0.309909 -0.335594 0.309052
v -0.324881 -0.584448 0.415874
v -0.312328 -0.447360 0.343731
v -0.458817 -0.616286 0.449115
v -0.226150 -0.316990 0.269982
v -0.110365 -0.260644 0.225725
v 0.410146 -0.443784 -0.526771
v 0.366866 -0.575683 -0.354011
v 0.244489 -0.303123 -0.417098
v 0.463092 -0.536172 0.313128
v 0.490275 -0.752931 0.177449
v 0.463620 -0.682806 -0.392681
v -0.245374 -0.663686 0.214192
v 0.402041 -0.727151 0.342824
v -0.281249 -0.708280 0.426026
v 0.120903 -0.289136 0.268261
v 0.200954 -0.438455 0.372114
v 0.428833 -0.396509 0.381550
v 0.215015 -0.080695 -0.058806
v 0.216015 -0.040632 0.020002
v 0.296696 -0.301977 -0.292680
v 0.228691 -0.159535 -0.161395
v 0.323857 -0.038499 -0.099821
v 0.272011 -0.086003 -0.156693
v 0.338617 -0.073734 -0.218926
v 0.372156 -0.126740 -0.591757
v 0.511855 -0.397584 -0.589879
v 0.485075 -0.071841 -0.497896
v 0.499629 -0.164546 -0.561782
v 0.458554 -0.005519 -0.550159
v 0.527656 -0.565353 -0.536226
v 0.402759 -0.430066 -0.400364
v 0.467200 0.063448 -0.204082
v 0.460892 0.051765 -0.285444
v 0.429475 0.083272 -0.272878
v 0.409426 -0.041386 -0.258661
v 0.454057 -0.001188 -0.287224
v 0.443876 -0.017711 -0.178343
v 0.439159 0.047986 -0.418173
v 0.458720 0.021606 -0.366558
v 0.464114 -0.003903 -0.427075
v 0.371601 -0.224345 -0.373362
v 0.448883 -0.106362 -0.422504
v 0.375725 -0.094728 -0.315845
v 0.249094 -0.025376 0.058345
v 0.370664 -0.038835 -0.028953
v 0.303588 -0.029305 0.019992
v 0.291456 -0.022478 0.128538
v 0.331390 -0.033175 0.191625
v 0.459771 0.082923 -0.109659
v 0.477209 0.046262 -0.111470
v 0.463514 -0.003473 0.108833
v 0.473096 0.018922 0.002769
v 0.469648 0.040706 0.090532
v 0.467812 0.002856 -0.094892
v 0.430508 -0.031072 -0.072657
v 0.417039 0.038684 0.342871
v 0.437129 0.111801 0.363614
v 0.367063 -0.025458 0.266624
v 0.396756 -0.009320 0.310983
v 0.459433 0.036565 0.269714
v 0.436059 0.011696 0.301173
v 0.449220 -0.004853 0.223716
v 0.408922 -0.034658 0.060244
v 0.435960 -0.029398 0.143721
v 0.390524 -0.036644 0.179016
v 0.043271 0.277096 0.351325
v 0.159537 0.278418 0.358690
v 0.103540 0.288822 0.356992
v 0.056192 0.347917 0.370924
v 0.070475 0.420091 0.394478
v 0.359394 0.255628 0.396306
v 0.345453 0.460000 0.437070
v 0.353984 0.353135 0.414443
v 0.304243 0.264527 0.387005
v 0.238631 0.279888 0.372381
v 0.200653 0.738520 0.548432
v 0.093841 0.512025 0.433658
v 0.127132 0.605202 0.478163
v 0.282136 0.653164 0.505870
v 0.318984 0.561879 0.468113
v 0.200625 0.361488 0.387289
v 0.251338 0.461791 0.427812
v 0.151669 0.451282 0.413900
v -0.308110 -0.094375 0.297970
v -0.240528 0.005340 0.292703
v -0.275122 -0.037889 0.296752
v -0.322728 -0.042746 0.316419
v -0.334274 0.002508 0.333303
v -0.115197 0.155885 0.323168
v -0.232752 0.166253 0.347649
v -0.175670 0.164365 0.332420
v -0.161501 0.099933 0.307350
v -0.201107 0.055148 0.299882
v -0.380713 0.155752 0.392596
v -0.351589 0.052624 0.360587
v -0.365571 0.093560 0.374707
v -0.337734 0.160328 0.385089
v -0.289528 0.162069 0.367143
v -0.254774 0.050495 0.319472
v -0.270230 0.100125 0.343646
v -0.304772 0.050758 0.342737
v -0.028258 -0.191981 -0.438965
v -0.446154 -0.751128 -0.249180
v -0.220036 -0.515737 -0.343565
v -0.341228 -0.319846 -0.532401
v -0.482856 -0.308442 -0.578206
v -0.404147 -0.342782 0.353750
v -0.364659 -0.287700 0.097869
v -0.424824 -0.355553 0.307188
v -0.448277 -0.479514 0.372348
v -0.510166 -0.680062 0.388769
v -0.441233 0.026402 -0.294459
v -0.468982 -0.122431 -0.517816
v -0.446490 -0.056744 -0.421407
v -0.399297 -0.118223 -0.305575
v -0.326390 -0.207622 -0.205304
v -0.426305 -0.619458 -0.345469
v -0.347234 -0.395410 -0.288866
v -0.489478 -0.562014 -0.517014
v 0.385766 0.095603 -0.300929
v 0.387845 0.078416 -0.443607
v 0.389103 0.087972 -0.370178
v 0.326904 0.096467 -0.297239
v 0.266418 0.080092 -0.283634
v 0.260217 0.003822 -0.578331
v 0.153098 0.079143 -0.472610
v 0.194789 0.059811 -0.538751
v 0.342863 0.032233 -0.560689
v 0.359795 0.059613 -0.503122
v 0.067634 0.056237 -0.222738
v 0.196970 0.071057 -0.258876
v 0.138758 0.060439 -0.245115
v 0.082379 0.065860 -0.299058
v 0.108865 0.077562 -0.382971
v 0.299502 0.088025 -0.439912
v 0.207205 0.082505 -0.422051
v 0.242989 0.084044 -0.349776
v 0.453956 0.169982 0.359710
v 0.458852 0.086869 0.251698
v 0.461367 0.118006 0.312681
v 0.457698 0.223675 0.339509
v 0.437331 0.263359 0.311736
v 0.429357 0.082353 -0.026383
v 0.368065 0.100485 0.115235
v 0.401793 0.086733 0.050809
v 0.449092 0.071634 0.065609
v 0.455099 0.064521 0.154742
v 0.288433 0.274336 0.248491
v 0.393204 0.286543 0.286026
v 0.342771 0.285568 0.265413
v 0.309912 0.204609 0.222748
v 0.332170 0.149167 0.184988
v 0.436672 0.118489 0.219174
v 0.388461 0.139425 0.194291
v 0.413714 0.196976 0.262079
f 1 163 165
f 43 164 163
f 45 165 164
f 163 164 165
f 13 166 168
f 44 167 166
f 43 168 167
f 166 167 168
f 15 169 171
f 45 170 169
f 44 171 170
f 169 170 171
f 43 167 164
f 44 170 167
f 45 164 170
f 167 170 164
f 12 172 174
f 46 173 172
f 48 174 173
f 172 173 174
f 14 175 177
f 47 176 175
f 46 177 176
f 175 176 177
f 13 178 180
f 48 179 178
f 47 180 179
f 178 179 180
f 46 176 173
f 47 179 176
f 48 173 179
f 176 179 173
f 6 181 183
f 49 182 181
f 51 183 182
f 181 182 183
f 15 184 186
f 50 185 184
f 49 186 185
f 184 185 186
f 14 187 189
f 51 188 187
f 50 189 188
f 187 188 189
f 49 185 182
f 50 188 185
f 51 182 188
f 185 188 182
f 13 180 166
f 47 190 180
f 44 166 190
f 180 190 166
f 14 189 175
f 50 191 189
f 47 175 191
f 189 191 175
f 15 171 184
f 44 192 171
f 50 184 192
f 171 192 184
f 47 191 190
f 50 192 191
f 44 190 192
f 191 192 190
f 1 165 194
f 45 193 165
f 53 194 193
f 165 193 194
f 15 195 169
f 52 196 195
f 45 169 196
f 195 196 169
f 17 197 199
f 53 198 197
f 52 199 198
f 197 198 199
f 45 196 193
f 52 198 196
f 53 193 198
f 196 198 193
f 6 200 181
f 54 201 200
f 49 181 201
f 200 201 181
f 16 202 204
f 55 203 202
f 54 204 203
f 202 203 204
f 15 186 206
f 49 205 186
f 55 206 205
f 186 205 206
f 54 203 201
f 55 205 203
f 49 201 205
f 203 205 201
f 2 207 209
f 56 208 207
f 58 209 208
f 207 208 209
f 17 210 212
f 57 211 210
f 56 212 211
f 210 211 212
f 16 213 215
f 58 214 213
f 57 215 214
f 213 214 215
f 56 211 208
f 57 214 211
f 58 208 214
f 211 214 208
f 15 206 195
f 55 216 206
f 52 195 216
f 206 216 195
f 16 215 202
f 57 217 215
f 55 202 217
f 215 217 202
f 17 199 210
f 52 218 199
f 57 210 218
f 199 218 210
f 55 217 216
f 57 218 217
f 52 216 218
f 217 218 216
f 1 194 220
f 53 219 194
f 60 220 219
f 194 219 220
f 17 221 197
f 59 222 221
f 53 197 222
f 221 222 197
f 19 223 225
f 60 224 223
f 59 225 224
f 223 224 225
f 53 222 219
f 59 224 222
f 60 219 224
f 222 224 219
f 2 226 207
f 61 227 226
f 56 207 227
f 226 227 207
f 18 228 230
f 62 229 228
f 61 230 229
f 228 229 230
f 17 212 232
f 56 231 212
f 62 232 231
f 212 231 232
f 61 229 227
f 62 231 229
f 56 227 231
f 229 231 227
f 8 233 235
f 63 234 233
f 65 235 234
f 233 234 235
f 19 236 238
f 64 237 236
f 63 238 237
f 236 237 238
f 18 239 241
f 65 240 239
f 64 241 240
f 239 240 241
f 63 237 234
f 64 240 237
f 65 234 240
f 237 240 234
f 17 232 221
f 62 242 232
f 59 221 242
f 232 242 221
f 18 241 228
f 64 243 241
f 62 228 243
f 241 243 228
f 19 225 236
f 59 244 225
f 64 236 244
f 225 244 236
f 62 243 242
f 64 244 243
f 59 242 244
f 243 244 242
f 1 220 246
f 60 245 220
f 67 246 245
f 220 245 246
f 19 247 223
f 66 248 247
f 60 223 248
f 247 248 223
f 21 249 251
f 67 250 249
f 66 251 250
f 249 250 251
f 60 248 245
f 66 250 248
f 67 245 250
f 248 250 245
f 8 252 233
f 68 253 252
f 63 233 253
f 252 253 233
f 20 254 256
f 69 255 254
f 68 256 255
f 254 255 256
f 19 238 258
f 63 257 238
f 69 258 257
f 238 257 258
f 68 255 253
f 69 257 255
f 63 253 257
f 255 257 253
f 11 259 261
f 70 260 259
f 72 261 260
f 259 260 261
f 21 262 264
f 71 263 262
f 70 264 263
f 262 263 264
f 20 265 267
f 72 266 265
f 71 267 266
f 265 266 267
f 70 263 260
f 71 266 263
f 72 260 266
f 263 266 260
f 19 258 247
f 69 268 258
f 66 247 268
f 258 268 247
f 20 267 254
f 71 269 267
f 69 254 269
f 267 269 254
f 21 251 262
f 66 270 251
f 71 262 270
f 251 270 262
f 69 269 268
f 71 270 269
f 66 268 270
f 269 270 268
f 1 246 163
f 67 271 246
f 43 163 271
f 246 271 163
f 21 272 249
f 73 273 272
f 67 249 273
f 272 273 249
f 13 168 275
f 43 274 168
f 73 275 274
f 168 274 275
f 67 273 271
f 73 274 273
f 43 271 274
f 273 274 271
f 11 276 259
f 74 277 276
f 70 259 277
f 276 277 259
f 22 278 280
f 75 279 278
f 74 280 279
f 278 279 280
f 21 264 282
f 70 281 264
f 75 282 281
f 264 281 282
f 74 279 277
f 75 281 279
f 70 277 281
f 279 281 277
f 12 174 284
f 48 283 174
f 77 284 283
f 174 283 284
f 13 285 178
f 76 286 285
f 48 178 286
f 285 286 178
f 22 287 289
f 77 288 287
f 76 289 288
f 287 288 289
f 48 286 283
f 76 288 286
f 77 283 288
f 286 288 283
f 21 282 272
f 75 290 282
f 73 272 290
f 282 290 272
f 22 289 278
f 76 291 289
f 75 278 291
f 289 291 278
f 13 275 285
f 73 292 275
f 76 285 292
f 275 292 285
f 75 291 290
f 76 292 291
f 73 290 292
f 291 292 290
f 2 209 294
f 58 293 209
f 79 294 293
f 209 293 294
f 16 295 213
f 78 296 295
f 58 213 296
f 295 296 213
f 24 297 299
f 79 298 297
f 78 299 298
f 297 298 299
f 58 296 293
f 78 298 296
f 79 293 298
f 296 298 293
f 6 300 200
f 80 301 300
f 54 200 301
f 300 301 200
f 23 302 304
f 81 303 302
f 80 304 303
f 302 303 304
f 16 204 306
f 54 305 204
f 81 306 305
f 204 305 306
f 80 303 301
f 81 305 303
f 54 301 305
f 303 305 301
f 10 307 309
f 82 308 307
f 84 309 308
f 307 308 309
f 24 310 312
f 83 311 310
f 82 312 311
f 310 311 312
f 23 313 315
f 84 314 313
f 83 315 314
f 313 314 315
f 82 311 308
f 83 314 311
f 84 308 314
f 311 314 308
f 16 306 295
f 81 316 306
f 78 295 316
f 306 316 295
f 23 315 302
f 83 317 315
f 81 302 317
f 315 317 302
f 24 299 310
f 78 318 299
f 83 310 318
f 299 318 310
f 81 317 316
f 83 318 317
f 78 316 318
f 317 318 316
f 6 183 320
f 51 319 183
f 86 320 319
f 183 319 320
f 14 321 187
f 85 322 321
f 51 187 322
f 321 322 187
f 26 323 325
f 86 324 323
f 85 325 324
f 323 324 325
f 51 322 319
f 85 324 322
f 86 319 324
f 322 324 319
f 12 326 172
f 87 327 326
f 46 172 327
f 326 327 172
f 25 328 330
f 88 329 328
f 87 330 329
f 328 329 330
f 14 177 332
f 46 331 177
f 88 332 331
f 177 331 332
f 87 329 327
f 88 331 329
f 46 327 331
f 329 331 327
f 5 333 335
f 89 334 333
f 91 335 334
f 333 334 335
f 26 336 338
f 90 337 336
f 89 338 337
f 336 337 338
f 25 339 341
f 91 340 339
f 90 341 340
f 339 340 341
f 89 337 334
f 90 340 337
f 91 334 340
f 337 340 334
f 14 332 321
f 88 342 332
f 85 321 342
f 332 342 321
f 25 341 328
f 90 343 341
f 88 328 343
f 341 343 328
f 26 325 336
f 85 344 325
f 90 336 344
f 325 344 336
f 88 343 342
f 90 344 343
f 85 342 344
f 343 344 342
f 12 284 346
f 77 345 284
f 93 346 345
f 284 345 346
f 22 347 287
f 92 348 347
f 77 287 348
f 347 348 287
f 28 349 351
f 93 350 349
f 92 351 350
f 349 350 351
f 77 348 345
f 92 350 348
f 93 345 350
f 348 350 345
f 11 352 276
f 94 353 352
f 74 276 353
f 352 353 276
f 27 354 356
f 95 355 354
f 94 356 355
f 354 355 356
f 22 280 358
f 74 357 280
f 95 358 357
f 280 357 358
f 94 355 353
f 95 357 355
f 74 353 357
f 355 357 353
f 3 359 361
f 96 360 359
f 98 361 360
f 359 360 361
f 28 362 364
f 97 363 362
f 96 364 363
f 362 363 364
f 27 365 367
f 98 366 365
f 97 367 366
f 365 366 367
f 96 363 360
f 97 366 363
f 98 360 366
f 363 366 360
f 22 358 347
f 95 368 358
f 92 347 368
f 358 368 347
f 27 367 354
f 97 369 367
f 95 354 369
f 367 369 354
f 28 351 362
f 92 370 351
f 97 362 370
f 351 370 362
f 95 369 368
f 97 370 369
f 92 368 370
f 369 370 368
f 11 261 372
f 72 371 261
f 100 372 371
f 261 371 372
f 20 373 265
f 99 374 373
f 72 265 374
f 373 374 265
f 30 375 377
f 100 376 375
f 99 377 376
f 375 376 377
f 72 374 371
f 99 376 374
f 100 371 376
f 374 376 371
f 8 378 252
f 101 379 378
f 68 252 379
f 378 379 252
f 29 380 382
f 102 381 380
f 101 382 381
f 380 381 382
f 20 256 384
f 68 383 256
f 102 384 383
f 256 383 384
f 101 381 379
f 102 383 381
f 68 379 383
f 381 383 379
f 7 385 387
f 103 386 385
f 105 387 386
f 385 386 387
f 30 388 390
f 104 389 388
f 103 390 389
f 388 389 390
f 29 391 393
f 105 392 391
f 104 393 392
f 391 392 393
f 103 389 386
f 104 392 389
f 105 386 392
f 389 392 386
f 20 384 373
f 102 394 384
f 99 373 394
f 384 394 373
f 29 393 380
f 104 395 393
f 102 380 395
f 393 395 380
f 30 377 388
f 99 396 377
f 104 388 396
f 377 396 388
f 102 395 394
f 104 396 395
f 99 394 396
f 395 396 394
f 8 235 398
f 65 397 235
f 107 398 397
f 235 397 398
f 18 399 239
f 106 400 399
f 65 239 400
f 399 400 239
f 32 401 403
f 107 402 401
f 106 403 402
f 401 402 403
f 65 400 397
f 106 402 400
f 107 397 402
f 400 402 397
f 2 404 226
f 108 405 404
f 61 226 405
f 404 405 226
f 31 406 408
f 109 407 406
f 108 408 407
f 406 407 408
f 18 230 410
f 61 409 230
f 109 410 409
f 230 409 410
f 108 407 405
f 109 409 407
f 61 405 409
f 407 409 405
f 9 411 413
f 110 412 411
f 112 413 412
f 411 412 413
f 32 414 416
f 111 415 414
f 110 416 415
f 414 415 416
f 31 417 419
f 112 418 417
f 111 419 418
f 417 418 419
f 110 415 412
f 111 418 415
f 112 412 418
f 415 418 412
f 18 410 399
f 109 420 410
f 106 399 420
f 410 420 399
f 31 419 406
f 111 421 419
f 109 406 421
f 419 421 406
f 32 403 414
f 106 422 403
f 111 414 422
f 403 422 414
f 109 421 420
f 111 422 421
f 106 420 422
f 421 422 420
f 4 423 425
f 113 424 423
f 115 425 424
f 423 424 425
f 33 426 428
f 114 427 426
f 113 428 427
f 426 427 428
f 35 429 431
f 115 430 429
f 114 431 430
f 429 430 431
f 113 427 424
f 114 430 427
f 115 424 430
f 427 430 424
f 10 432 434
f 116 433 432
f 118 434 433
f 432 433 434
f 34 435 437
f 117 436 435
f 116 437 436
f 435 436 437
f 33 438 440
f 118 439 438
f 117 440 439
f 438 439 440
f 116 436 433
f 117 439 436
f 118 433 439
f 436 439 433
f 5 441 443
f 119 442 441
f 121 443 442
f 441 442 443
f 35 444 446
f 120 445 444
f 119 446 445
f 444 445 446
f 34 447 449
f 121 448 447
f 120 449 448
f 447 448 449
f 119 445 442
f 120 448 445
f 121 442 448
f 445 448 442
f 33 440 426
f 117 450 440
f 114 426 450
f 440 450 426
f 34 449 435
f 120 451 449
f 117 435 451
f 449 451 435
f 35 431 444
f 114 452 431
f 120 444 452
f 431 452 444
f 117 451 450
f 120 452 451
f 114 450 452
f 451 452 450
f 4 425 454
f 115 453 425
f 123 454 453
f 425 453 454
f 35 455 429
f 122 456 455
f 115 429 456
f 455 456 429
f 37 457 459
f 123 458 457
f 122 459 458
f 457 458 459
f 115 456 453
f 122 458 456
f 123 453 458
f 456 458 453
f 5 460 441
f 124 461 460
f 119 441 461
f 460 461 441
f 36 462 464
f 125 463 462
f 124 464 463
f 462 463 464
f 35 446 466
f 119 465 446
f 125 466 465
f 446 465 466
f 124 463 461
f 125 465 463
f 119 461 465
f 463 465 461
f 3 467 469
f 126 468 467
f 128 469 468
f 467 468 469
f 37 470 472
f 127 471 470
f 126 472 471
f 470 471 472
f 36 473 475
f 128 474 473
f 127 475 474
f 473 474 475
f 126 471 468
f 127 474 471
f 128 468 474
f 471 474 468
f 35 466 455
f 125 476 466
f 122 455 476
f 466 476 455
f 36 475 462
f 127 477 475
f 125 462 477
f 475 477 462
f 37 459 470
f 122 478 459
f 127 470 478
f 459 478 470
f 125 477 476
f 127 478 477
f 122 476 478
f 477 478 476
f 4 454 480
f 123 479 454
f 130 480 479
f 454 479 480
f 37 481 457
f 129 482 481
f 123 457 482
f 481 482 457
f 39 483 485
f 130 484 483
f 129 485 484
f 483 484 485
f 123 482 479
f 129 484 482
f 130 479 484
f 482 484 479
f 3 486 467
f 131 487 486
f 126 467 487
f 486 487 467
f 38 488 490
f 132 489 488
f 131 490 489
f 488 489 490
f 37 472 492
f 126 491 472
f 132 492 491
f 472 491 492
f 131 489 487
f 132 491 489
f 126 487 491
f 489 491 487
f 7 493 495
f 133 494 493
f 135 495 494
f 493 494 495
f 39 496 498
f 134 497 496
f 133 498 497
f 496 497 498
f 38 499 501
f 135 500 499
f 134 501 500
f 499 500 501
f 133 497 494
f 134 500 497
f 135 494 500
f 497 500 494
f 37 492 481
f 132 502 492
f 129 481 502
f 492 502 481
f 38 501 488
f 134 503 501
f 132 488 503
f 501 503 488
f 39 485 496
f 129 504 485
f 134 496 504
f 485 504 496
f 132 503 502
f 134 504 503
f 129 502 504
f 503 504 502
f 4 480 506
f 130 505 480
f 137 506 505
f 480 505 506
f 39 507 483
f 136 508 507
f 130 483 508
f 507 508 483
f 41 509 511
f 137 510 509
f 136 511 510
f 509 510 511
f 130 508 505
f 136 510 508
f 137 505 510
f 508 510 505
f 7 512 493
f 138 513 512
f 133 493 513
f 512 513 493
f 40 514 516
f 139 515 514
f 138 516 515
f 514 515 516
f 39 498 518
f 133 517 498
f 139 518 517
f 498 517 518
f 138 515 513
f 139 517 515
f 133 513 517
f 515 517 513
f 9 519 521
f 140 520 519
f 142 521 520
f 519 520 521
f 41 522 524
f 141 523 522
f 140 524 523
f 522 523 524
f 40 525 527
f 142 526 525
f 141 527 526
f 525 526 527
f 140 523 520
f 141 526 523
f 142 520 526
f 523 526 520
f 39 518 507
f 139 528 518
f 136 507 528
f 518 528 507
f 40 527 514
f 141 529 527
f 139 514 529
f 527 529 514
f 41 511 522
f 136 530 511
f 141 522 530
f 511 530 522
f 139 529 528
f 141 530 529
f 136 528 530
f 529 530 528
f 4 506 423
f 137 531 506
f 113 423 531
f 506 531 423
f 41 532 509
f 143 533 532
f 137 509 533
f 532 533 509
f 33 428 535
f 113 534 428
f 143 535 534
f 428 534 535
f 137 533 531
f 143 534 533
f 113 531 534
f 533 534 531
f 9 536 519
f 144 537 536
f 140 519 537
f 536 537 519
f 42 538 540
f 145 539 538
f 144 540 539
f 538 539 540
f 41 524 542
f 140 541 524
f 145 542 541
f 524 541 542
f 144 539 537
f 145 541 539
f 140 537 541
f 539 541 537
f 10 434 544
f 118 543 434
f 147 544 543
f 434 543 544
f 33 545 438
f 146 546 545
f 118 438 546
f 545 546 438
f 42 547 549
f 147 548 547
f 146 549 548
f 547 548 549
f 118 546 543
f 146 548 546
f 147 543 548
f 546 548 543
f 41 542 532
f 145 550 542
f 143 532 550
f 542 550 532
f 42 549 538
f 146 551 549
f 145 538 551
f 549 551 538
f 33 535 545
f 143 552 535
f 146 545 552
f 535 552 545
f 145 551 550
f 146 552 551
f 143 550 552
f 551 552 550
f 5 443 333
f 121 553 443
f 89 333 553
f 443 553 333
f 34 554 447
f 148 555 554
f 121 447 555
f 554 555 447
f 26 338 557
f 89 556 338
f 148 557 556
f 338 556 557
f 121 555 553
f 148 556 555
f 89 553 556
f 555 556 553
f 10 309 432
f 84 558 309
f 116 432 558
f 309 558 432
f 23 559 313
f 149 560 559
f 84 313 560
f 559 560 313
f 34 437 562
f 116 561 437
f 149 562 561
f 437 561 562
f 84 560 558
f 149 561 560
f 116 558 561
f 560 561 558
f 6 320 300
f 86 563 320
f 80 300 563
f 320 563 300
f 26 564 323
f 150 565 564
f 86 323 565
f 564 565 323
f 23 304 567
f 80 566 304
f 150 567 566
f 304 566 567
f 86 565 563
f 150 566 565
f 80 563 566
f 565 566 563
f 34 562 554
f 149 568 562
f 148 554 568
f 562 568 554
f 23 567 559
f 150 569 567
f 149 559 569
f 567 569 559
f 26 557 564
f 148 570 557
f 150 564 570
f 557 570 564
f 149 569 568
f 150 570 569
f 148 568 570
f 569 570 568
f 3 469 359
f 128 571 469
f 96 359 571
f 469 571 359
f 36 572 473
f 151 573 572
f 128 473 573
f 572 573 473
f 28 364 575
f 96 574 364
f 151 575 574
f 364 574 575
f 128 573 571
f 151 574 573
f 96 571 574
f 573 574 571
f 5 335 460
f 91 576 335
f 124 460 576
f 335 576 460
f 25 577 339
f 152 578 577
f 91 339 578
f 577 578 339
f 36 464 580
f 124 579 464
f 152 580 579
f 464 579 580
f 91 578 576
f 152 579 578
f 124 576 579
f 578 579 576
f 12 346 326
f 93 581 346
f 87 326 581
f 346 581 326
f 28 582 349
f 153 583 582
f 93 349 583
f 582 583 349
f 25 330 585
f 87 584 330
f 153 585 584
f 330 584 585
f 93 583 581
f 153 584 583
f 87 581 584
f 583 584 581
f 36 580 572
f 152 586 580
f 151 572 586
f 580 586 572
f 25 585 577
f 153 587 585
f 152 577 587
f 585 587 577
f 28 575 582
f 151 588 575
f 153 582 588
f 575 588 582
f 152 587 586
f 153 588 587
f 151 586 588
f 587 588 586
f 7 495 385
f 135 589 495
f 103 385 589
f 495 589 385
f 38 590 499
f 154 591 590
f 135 499 591
f 590 591 499
f 30 390 593
f 103 592 390
f 154 593 592
f 390 592 593
f 135 591 589
f 154 592 591
f 103 589 592
f 591 592 589
f 3 361 486
f 98 594 361
f 131 486 594
f 361 594 486
f 27 595 365
f 155 596 595
f 98 365 596
f 595 596 365
f 38 490 598
f 131 597 490
f 155 598 597
f 490 597 598
f 98 596 594
f 155 597 596
f 131 594 597
f 596 597 594
f 11 372 352
f 100 599 372
f 94 352 599
f 372 599 352
f 30 600 375
f 156 601 600
f 100 375 601
f 600 601 375
f 27 356 603
f 94 602 356
f 156 603 602
f 356 602 603
f 100 601 599
f 156 602 601
f 94 599 602
f 601 602 599
f 38 598 590
f 155 604 598
f 154 590 604
f 598 604 590
f 27 603 595
f 156 605 603
f 155 595 605
f 603 605 595
f 30 593 600
f 154 606 593
f 156 600 606
f 593 606 600
f 155 605 604
f 156 606 605
f 154 604 606
f 605 606 604
f 9 521 411
f 142 607 521
f 110 411 607
f 521 607 411
f 40 608 525
f 157 609 608
f 142 525 609
f 608 609 525
f 32 416 611
f 110 610 416
f 157 611 610
f 416 610 611
f 142 609 607
f 157 610 609
f 110 607 610
f 609 610 607
f 7 387 512
f 105 612 387
f 138 512 612
f 387 612 512
f 29 613 391
f 158 614 613
f 105 391 614
f 613 614 391
f 40 516 616
f 138 615 516
f 158 616 615
f 516 615 616
f 105 614 612
f 158 615 614
f 138 612 615
f 614 615 612
f 8 398 378
f 107 617 398
f 101 378 617
f 398 617 378
f 32 618 401
f 159 619 618
f 107 401 619
f 618 619 401
f 29 382 621
f 101 620 382
f 159 621 620
f 382 620 621
f 107 619 617
f 159 620 619
f 101 617 620
f 619 620 617
f 40 616 608
f 158 622 616
f 157 608 622
f 616 622 608
f 29 621 613
f 159 623 621
f 158 613 623
f 621 623 613
f 32 611 618
f 157 624 611
f 159 618 624
f 611 624 618
f 158 623 622
f 159 624 623
f 157 622 624
f 623 624 622
f 10 544 307
f 147 625 544
f 82 307 625
f 544 625 307
f 42 626 547
f 160 627 626
f 147 547 627
f 626 627 547
f 24 312 629
f 82 628 312
f 160 629 628
f 312 628 629
f 147 627 625
f 160 628 627
f 82 625 628
f 627 628 625
f 9 413 536
f 112 630 413
f 144 536 630
f 413 630 536
f 31 631 417
f 161 632 631
f 112 417 632
f 631 632 417
f 42 540 634
f 144 633 540
f 161 634 633
f 540 633 634
f 112 632 630
f 161 633 632
f 144 630 633
f 632 633 630
f 2 294 404
f 79 635 294
f 108 404 635
f 294 635 404
f 24 636 297
f 162 637 636
f 79 297 637
f 636 637 297
f 31 408 639
f 108 638 408
f 162 639 638
f 408 638 639
f 79 637 635
f 162 638 637
f 108 635 638
f 637 638 635
f 42 634 626
f 161 640 634
f 160 626 640
f 634 640 626
f 31 639 631
f 162 641 639
f 161 631 641
f 639 641 631
f 24 629 636
f 160 642 629
f 162 636 642
f 629 642 636
f 161 641 640
f 162 642 641
f 160 640 642
f 641 642 640
