# Pixel2Mesh output
v -0.710964 1.166192 -0.603236
v 0.025253 0.993850 -0.579265
v -0.644917 -0.082595 -0.519370
v 0.264503 -0.087637 -0.483454
v -0.075448 -0.069009 0.081192
v -0.108119 0.042383 0.105962
v -0.546568 -0.340225 -0.227017
v -0.519390 0.158557 0.138988
v -0.208750 0.002691 -0.228916
v -0.027335 0.000382 0.011111
v -1.079643 0.523271 -0.932195
v -0.301431 0.186521 -0.143053
v -0.631012 0.748403 -0.401346
v -0.117651 0.087515 0.053454
v -0.320680 0.265894 -0.182383
v -0.164775 0.179102 -0.098738
v -0.641563 0.687988 -0.521234
v -0.252443 1.136325 -0.598064
v -0.685617 1.240126 -0.789101
v -0.898894 0.677073 -0.576857
v -1.011113 0.970618 -0.823413
v -0.963879 0.452478 -0.607515
v -0.085464 0.029453 0.088849
v 0.042736 0.481702 -0.250287
v -0.122026 -0.024793 0.059951
v -0.081036 -0.003007 0.113387
v -0.962499 0.162217 -0.844327
v -0.630822 0.110812 -0.301073
v -0.346006 -0.144858 0.092976
v -0.838635 0.241963 -0.689708
v -0.041938 0.728785 -0.483276
v -0.271688 0.311154 -0.203572
v 0.175561 -0.051922 -0.199540
v -0.065616 -0.059411 0.078213
v 0.043543 -0.113359 -0.082831
v -0.233956 -0.110149 -0.080744
v -0.172907 -0.206782 -0.473531
v -0.548900 -0.015117 -0.879615
v 0.010444 -0.024872 -0.832296
v -0.243922 -0.016391 -0.424809
v 0.185136 0.088584 -0.542357
v -0.064849 0.044933 -0.044990
v -0.740449 1.016729 -0.490060
v -0.453733 0.651161 -0.344247
v -0.563100 0.813679 -0.481455
v -0.154071 0.143850 -0.011720
v -0.272936 0.331703 -0.145476
v -0.436635 0.421203 -0.264402
v -0.158743 0.077246 0.039292
v -0.173953 0.200351 -0.041405
v -0.104678 0.057515 0.091159
v -0.505385 0.355753 -0.348413
v -0.634444 0.995885 -0.634891
v -0.133360 0.068545 0.058370
v -0.256132 0.106351 -0.049261
v -0.375035 0.839794 -0.546100
v -0.356622 0.305505 -0.283399
v -0.197467 0.535243 -0.367300
v -0.635056 1.194068 -0.686100
v -0.702118 1.246429 -0.766003
v -0.017691 1.194729 -0.686517
v -0.422668 1.136442 -0.624648
v -0.770937 0.844708 -0.339768
v -0.598601 1.116223 -0.540181
v -0.536939 0.624691 -0.124887
v -0.822228 1.160497 -0.887386
v -0.872444 1.136206 -0.701243
v -0.747629 0.407425 -0.102447
v -0.784503 1.049058 -0.810710
v -1.097129 0.738715 -0.894782
v -0.942222 0.958881 -0.952601
v -0.993288 0.708351 -0.885318
v -0.920463 0.951532 -0.586909
v -1.116560 0.462656 -0.791363
v -1.076753 0.699432 -0.723912
v -0.822446 0.656598 -0.484855
v -0.650974 0.382030 -0.387268
v -0.056988 0.368563 -0.229361
v 0.105470 0.765118 -0.448230
v -0.099405 0.034154 0.105454
v -0.101930 0.113618 0.020655
v -0.016802 0.163356 -0.064350
v -0.028192 0.150901 -0.049462
v -0.066610 0.017531 0.062278
v -0.083104 0.021739 0.108883
v -0.091289 0.020775 0.116226
v -0.170132 0.044517 -0.000710
v -0.093168 0.025792 0.082749
v -0.076639 -0.035368 0.103783
v -0.082270 -0.014558 0.103022
v -0.098795 -0.057659 0.081904
v -0.813166 0.282277 -0.451996
v -0.456366 0.140713 -0.218631
v -1.043373 0.323288 -0.935927
v -1.037044 0.289757 -0.736190
v -0.715084 0.014635 -0.393415
v -0.894764 0.133770 -0.566214
v -0.832853 0.024792 -0.689877
v -0.932651 0.241699 -0.316737
v -0.963180 0.465860 -0.926376
v -0.370685 -0.021180 0.148082
v -0.548159 -0.007750 0.082472
v -0.713202 -0.074039 -0.351242
v -0.566385 -0.232257 0.024849
v -0.379697 -0.336154 0.016048
v -0.287316 0.781860 -0.416255
v -0.331057 0.126622 0.092578
v 0.216183 1.061264 -0.611366
v 0.073136 1.096100 -0.679009
v -0.266215 0.257208 -0.399303
v -0.149025 0.669128 -0.535904
v -0.197396 0.231387 -0.228252
v 0.323299 -0.017246 -0.341842
v 0.162546 -0.087311 -0.158949
v 0.168035 -0.117079 -0.259460
v -0.053114 -0.050370 0.056680
v 0.034752 -0.082575 -0.027682
v 0.031305 -0.046785 -0.058879
v -0.050992 -0.089932 0.030789
v -0.016783 -0.097159 0.015143
v -0.065181 -0.063848 0.084215
v -0.023303 -0.190545 -0.246397
v 0.051663 -0.174708 -0.473796
v -0.110519 -0.092783 0.030246
v -0.095231 -0.136227 -0.043473
v -0.405986 -0.167685 -0.493053
v -0.236299 -0.187990 -0.253993
v -0.454623 -0.108881 -0.277538
v -0.075321 -0.144971 -0.681014
v 0.179979 -0.079831 -0.703097
v -0.608947 -0.081179 -0.750295
v -0.370815 -0.141567 -0.698271
v -0.263595 -0.046525 -0.705533
v -0.301654 -0.063571 -0.822220
v -0.540338 -0.023076 -0.724456
v 0.246439 0.060679 -0.786019
v 0.355963 0.027396 -0.601545
v -0.334282 -0.160104 -0.324468
v -0.021901 0.073203 -0.804012
v -0.127493 -0.024419 -0.300342
v 0.045641 0.128766 -0.686831
v -0.221872 0.071302 -0.459176
v 0.246807 0.046911 -0.368031
v -0.125916 -0.032024 -0.048573
v -0.034958 0.002659 -0.188708
v 0.057006 0.025506 -0.136387
v -0.000576 0.078919 -0.072080
v -0.084406 -0.027513 0.108091
v -0.088992 -0.022265 0.104937
v -0.091144 0.003025 0.115205
v -0.430984 -0.028062 -0.176014
v -0.169359 -0.066006 0.007613
v -0.310725 0.016295 -0.078777
v -0.695446 0.153300 -0.927244
v -0.772386 0.056073 -0.909531
v -0.888978 0.270356 -1.009093
v -0.253672 -0.007449 -0.170014
v -0.285152 -0.218667 -0.016565
v -0.256934 -0.057434 0.078336
v -0.031940 0.307762 -0.119597
v -0.113497 0.248207 -0.128659
v 0.054297 0.703031 -0.372181
f 1 43 45
f 13 44 43
f 15 45 44
f 43 44 45
f 12 46 48
f 14 47 46
f 13 48 47
f 46 47 48
f 6 49 51
f 15 50 49
f 14 51 50
f 49 50 51
f 13 47 44
f 14 50 47
f 15 44 50
f 47 50 44
f 1 45 53
f 15 52 45
f 17 53 52
f 45 52 53
f 6 54 49
f 16 55 54
f 15 49 55
f 54 55 49
f 2 56 58
f 17 57 56
f 16 58 57
f 56 57 58
f 15 55 52
f 16 57 55
f 17 52 57
f 55 57 52
f 1 53 60
f 17 59 53
f 19 60 59
f 53 59 60
f 2 61 56
f 18 62 61
f 17 56 62
f 61 62 56
f 8 63 65
f 19 64 63
f 18 65 64
f 63 64 65
f 17 62 59
f 18 64 62
f 19 59 64
f 62 64 59
f 1 60 67
f 19 66 60
f 21 67 66
f 60 66 67
f 8 68 63
f 20 69 68
f 19 63 69
f 68 69 63
f 11 70 72
f 21 71 70
f 20 72 71
f 70 71 72
f 19 69 66
f 20 71 69
f 21 66 71
f 69 71 66
f 1 67 43
f 21 73 67
f 13 43 73
f 67 73 43
f 11 74 70
f 22 75 74
f 21 70 75
f 74 75 70
f 12 48 77
f 13 76 48
f 22 77 76
f 48 76 77
f 21 75 73
f 22 76 75
f 13 73 76
f 75 76 73
f 2 58 79
f 16 78 58
f 24 79 78
f 58 78 79
f 6 80 54
f 23 81 80
f 16 54 81
f 80 81 54
f 10 82 84
f 24 83 82
f 23 84 83
f 82 83 84
f 16 81 78
f 23 83 81
f 24 78 83
f 81 83 78
f 6 51 86
f 14 85 51
f 26 86 85
f 51 85 86
f 12 87 46
f 25 88 87
f 14 46 88
f 87 88 46
f 5 89 91
f 26 90 89
f 25 91 90
f 89 90 91
f 14 88 85
f 25 90 88
f 26 85 90
f 88 90 85
f 12 77 93
f 22 92 77
f 28 93 92
f 77 92 93
f 11 94 74
f 27 95 94
f 22 74 95
f 94 95 74
f 3 96 98
f 28 97 96
f 27 98 97
f 96 97 98
f 22 95 92
f 27 97 95
f 28 92 97
f 95 97 92
f 11 72 100
f 20 99 72
f 30 100 99
f 72 99 100
f 8 101 68
f 29 102 101
f 20 68 102
f 101 102 68
f 7 103 105
f 30 104 103
f 29 105 104
f 103 104 105
f 20 102 99
f 29 104 102
f 30 99 104
f 102 104 99
f 8 65 107
f 18 106 65
f 32 107 106
f 65 106 107
f 2 108 61
f 31 109 108
f 18 61 109
f 108 109 61
f 9 110 112
f 32 111 110
f 31 112 111
f 110 111 112
f 18 109 106
f 31 111 109
f 32 106 111
f 109 111 106
f 4 113 115
f 33 114 113
f 35 115 114
f 113 114 115
f 10 116 118
f 34 117 116
f 33 118 117
f 116 117 118
f 5 119 121
f 35 120 119
f 34 121 120
f 119 120 121
f 33 117 114
f 34 120 117
f 35 114 120
f 117 120 114
f 4 115 123
f 35 122 115
f 37 123 122
f 115 122 123
f 5 124 119
f 36 125 124
f 35 119 125
f 124 125 119
f 3 126 128
f 37 127 126
f 36 128 127
f 126 127 128
f 35 125 122
f 36 127 125
f 37 122 127
f 125 127 122
f 4 123 130
f 37 129 123
f 39 130 129
f 123 129 130
f 3 131 126
f 38 132 131
f 37 126 132
f 131 132 126
f 7 133 135
f 39 134 133
f 38 135 134
f 133 134 135
f 37 132 129
f 38 134 132
f 39 129 134
f 132 134 129
f 4 130 137
f 39 136 130
f 41 137 136
f 130 136 137
f 7 138 133
f 40 139 138
f 39 133 139
f 138 139 133
f 9 140 142
f 41 141 140
f 40 142 141
f 140 141 142
f 39 139 136
f 40 141 139
f 41 136 141
f 139 141 136
f 4 137 113
f 41 143 137
f 33 113 143
f 137 143 113
f 9 144 140
f 42 145 144
f 41 140 145
f 144 145 140
f 10 118 147
f 33 146 118
f 42 147 146
f 118 146 147
f 41 145 143
f 42 146 145
f 33 143 146
f 145 146 143
f 5 121 89
f 34 148 121
f 26 89 148
f 121 148 89
f 10 84 116
f 23 149 84
f 34 116 149
f 84 149 116
f 6 86 80
f 26 150 86
f 23 80 150
f 86 150 80
f 34 149 148
f 23 150 149
f 26 148 150
f 149 150 148
f 3 128 96
f 36 151 128
f 28 96 151
f 128 151 96
f 5 91 124
f 25 152 91
f 36 124 152
f 91 152 124
f 12 93 87
f 28 153 93
f 25 87 153
f 93 153 87
f 36 152 151
f 25 153 152
f 28 151 153
f 152 153 151
f 7 135 103
f 38 154 135
f 30 103 154
f 135 154 103
f 3 98 131
f 27 155 98
f 38 131 155
f 98 155 131
f 11 100 94
f 30 156 100
f 27 94 156
f 100 156 94
f 38 155 154
f 27 156 155
f 30 154 156
f 155 156 154
f 9 142 110
f 40 157 142
f 32 110 157
f 142 157 110
f 7 105 138
f 29 158 105
f 40 138 158
f 105 158 138
f 8 107 101
f 32 159 107
f 29 101 159
f 107 159 101
f 40 158 157
f 29 159 158
f 32 157 159
f 158 159 157
f 10 147 82
f 42 160 147
f 24 82 160
f 147 160 82
f 9 112 144
f 31 161 112
f 42 144 161
f 112 161 144
f 2 79 108
f 24 162 79
f 31 108 162
f 79 162 108
f 42 161 160
f 31 162 161
f 24 160 162
f 161 162 160
